solid OpenSCAD_Model
  facet normal 0.893225 0.44961 0
    outer loop
      vertex 20.673 8.3587 12.5
      vertex 20.2416 9.21581 2.5
      vertex 20.2416 9.21581 12.5
    endloop
  endfacet
  facet normal 0.893225 0.44961 0
    outer loop
      vertex 20.2416 9.21581 2.5
      vertex 20.673 8.3587 12.5
      vertex 20.673 8.3587 2.5
    endloop
  endfacet
  facet normal 0.405242 -0.914209 0
    outer loop
      vertex 10.4815 -18.0618 2.5
      vertex 11.3587 -17.673 12.5
      vertex 10.4815 -18.0618 12.5
    endloop
  endfacet
  facet normal 0.405242 -0.914209 0
    outer loop
      vertex 11.3587 -17.673 12.5
      vertex 10.4815 -18.0618 2.5
      vertex 11.3587 -17.673 2.5
    endloop
  endfacet
  facet normal 0.975703 0.219099 0
    outer loop
      vertex 22.1744 3.81402 12.5
      vertex 21.9641 4.75026 2.5
      vertex 21.9641 4.75026 12.5
    endloop
  endfacet
  facet normal 0.975703 0.219099 0
    outer loop
      vertex 21.9641 4.75026 2.5
      vertex 22.1744 3.81402 12.5
      vertex 22.1744 3.81402 2.5
    endloop
  endfacet
  facet normal 0.870086 0.492899 0
    outer loop
      vertex 20.2416 9.21581 12.5
      vertex 19.7686 10.0507 2.5
      vertex 19.7686 10.0507 12.5
    endloop
  endfacet
  facet normal 0.870086 0.492899 0
    outer loop
      vertex 19.7686 10.0507 2.5
      vertex 20.2416 9.21581 12.5
      vertex 20.2416 9.21581 2.5
    endloop
  endfacet
  facet normal 0.932993 -0.359894 0
    outer loop
      vertex 21.0618 -7.48146 12.5
      vertex 21.4072 -6.5862 2.5
      vertex 21.4072 -6.5862 12.5
    endloop
  endfacet
  facet normal 0.932993 -0.359894 0
    outer loop
      vertex 21.4072 -6.5862 2.5
      vertex 21.0618 -7.48146 12.5
      vertex 21.0618 -7.48146 2.5
    endloop
  endfacet
  facet normal 0.963776 0.266713 0
    outer loop
      vertex 21.9641 4.75026 12.5
      vertex 21.7082 5.67507 2.5
      vertex 21.7082 5.67507 12.5
    endloop
  endfacet
  facet normal 0.963776 0.266713 0
    outer loop
      vertex 21.7082 5.67507 2.5
      vertex 21.9641 4.75026 12.5
      vertex 21.9641 4.75026 2.5
    endloop
  endfacet
  facet normal 0.844854 0.534997 0
    outer loop
      vertex 19.7686 10.0507 12.5
      vertex 19.2552 10.8614 2.5
      vertex 19.2552 10.8614 12.5
    endloop
  endfacet
  facet normal 0.844854 0.534997 0
    outer loop
      vertex 19.2552 10.8614 2.5
      vertex 19.7686 10.0507 12.5
      vertex 19.7686 10.0507 2.5
    endloop
  endfacet
  facet normal 0.170962 0.985278 -0
    outer loop
      vertex 6.81402 19.1744 2.5
      vertex 5.86858 19.3384 12.5
      vertex 6.81402 19.1744 12.5
    endloop
  endfacet
  facet normal 0.170962 0.985278 0
    outer loop
      vertex 5.86858 19.3384 12.5
      vertex 6.81402 19.1744 2.5
      vertex 5.86858 19.3384 2.5
    endloop
  endfacet
  facet normal 0.0735658 0.99729 -0
    outer loop
      vertex 4.91623 19.4559 2.5
      vertex 3.95927 19.5265 12.5
      vertex 4.91623 19.4559 12.5
    endloop
  endfacet
  facet normal 0.0735658 0.99729 0
    outer loop
      vertex 3.95927 19.5265 12.5
      vertex 4.91623 19.4559 2.5
      vertex 3.95927 19.5265 2.5
    endloop
  endfacet
  facet normal 0.615231 0.788347 -0
    outer loop
      vertex 15.4024 15.1124 2.5
      vertex 14.6459 15.7027 12.5
      vertex 15.4024 15.1124 12.5
    endloop
  endfacet
  facet normal 0.615231 0.788347 0
    outer loop
      vertex 14.6459 15.7027 12.5
      vertex 15.4024 15.1124 2.5
      vertex 14.6459 15.7027 2.5
    endloop
  endfacet
  facet normal 0.44961 0.893225 -0
    outer loop
      vertex 12.2158 17.2416 2.5
      vertex 11.3587 17.673 12.5
      vertex 12.2158 17.2416 12.5
    endloop
  endfacet
  facet normal 0.44961 0.893225 0
    outer loop
      vertex 11.3587 17.673 12.5
      vertex 12.2158 17.2416 2.5
      vertex 11.3587 17.673 2.5
    endloop
  endfacet
  facet normal 0.999699 -0.0245405 0
    outer loop
      vertex 22.5265 -0.959272 12.5
      vertex 22.55 0 2.5
      vertex 22.55 0 12.5
    endloop
  endfacet
  facet normal 0.999699 -0.0245405 0
    outer loop
      vertex 22.55 0 2.5
      vertex 22.5265 -0.959272 12.5
      vertex 22.5265 -0.959272 2.5
    endloop
  endfacet
  facet normal 0.99729 0.0735658 0
    outer loop
      vertex 22.5265 0.959272 12.5
      vertex 22.4559 1.91623 2.5
      vertex 22.4559 1.91623 12.5
    endloop
  endfacet
  facet normal 0.99729 0.0735658 0
    outer loop
      vertex 22.4559 1.91623 2.5
      vertex 22.5265 0.959272 12.5
      vertex 22.5265 0.959272 2.5
    endloop
  endfacet
  facet normal 0.949528 0.313683 0
    outer loop
      vertex 21.7082 5.67507 12.5
      vertex 21.4072 6.5862 2.5
      vertex 21.4072 6.5862 12.5
    endloop
  endfacet
  facet normal 0.949528 0.313683 0
    outer loop
      vertex 21.4072 6.5862 2.5
      vertex 21.7082 5.67507 12.5
      vertex 21.7082 5.67507 2.5
    endloop
  endfacet
  facet normal 0.68954 0.724247 -0
    outer loop
      vertex 16.8239 13.8239 2.5
      vertex 16.129 14.4856 12.5
      vertex 16.8239 13.8239 12.5
    endloop
  endfacet
  facet normal 0.68954 0.724247 0
    outer loop
      vertex 16.129 14.4856 12.5
      vertex 16.8239 13.8239 2.5
      vertex 16.129 14.4856 2.5
    endloop
  endfacet
  facet normal 0.817584 0.575809 0
    outer loop
      vertex 19.2552 10.8614 12.5
      vertex 18.7027 11.6459 2.5
      vertex 18.7027 11.6459 12.5
    endloop
  endfacet
  facet normal 0.817584 0.575809 0
    outer loop
      vertex 18.7027 11.6459 2.5
      vertex 19.2552 10.8614 12.5
      vertex 19.2552 10.8614 2.5
    endloop
  endfacet
  facet normal 0.788348 0.61523 0
    outer loop
      vertex 18.7027 11.6459 12.5
      vertex 18.1124 12.4024 2.5
      vertex 18.1124 12.4024 12.5
    endloop
  endfacet
  facet normal 0.788348 0.61523 0
    outer loop
      vertex 18.1124 12.4024 2.5
      vertex 18.7027 11.6459 12.5
      vertex 18.7027 11.6459 2.5
    endloop
  endfacet
  facet normal 0.757208 0.653174 0
    outer loop
      vertex 18.1124 12.4024 12.5
      vertex 17.4856 13.129 2.5
      vertex 17.4856 13.129 12.5
    endloop
  endfacet
  facet normal 0.757208 0.653174 0
    outer loop
      vertex 17.4856 13.129 2.5
      vertex 18.1124 12.4024 12.5
      vertex 18.1124 12.4024 2.5
    endloop
  endfacet
  facet normal 0.724247 0.68954 0
    outer loop
      vertex 17.4856 13.129 12.5
      vertex 16.8239 13.8239 2.5
      vertex 16.8239 13.8239 12.5
    endloop
  endfacet
  facet normal 0.724247 0.68954 0
    outer loop
      vertex 16.8239 13.8239 2.5
      vertex 17.4856 13.129 12.5
      vertex 17.4856 13.129 2.5
    endloop
  endfacet
  facet normal 0.266713 0.963776 -0
    outer loop
      vertex 8.67507 18.7082 2.5
      vertex 7.75026 18.9641 12.5
      vertex 8.67507 18.7082 12.5
    endloop
  endfacet
  facet normal 0.266713 0.963776 0
    outer loop
      vertex 7.75026 18.9641 12.5
      vertex 8.67507 18.7082 2.5
      vertex 7.75026 18.9641 2.5
    endloop
  endfacet
  facet normal 0.219099 0.975703 -0
    outer loop
      vertex 7.75026 18.9641 2.5
      vertex 6.81402 19.1744 12.5
      vertex 7.75026 18.9641 12.5
    endloop
  endfacet
  facet normal 0.219099 0.975703 0
    outer loop
      vertex 6.81402 19.1744 12.5
      vertex 7.75026 18.9641 2.5
      vertex 6.81402 19.1744 2.5
    endloop
  endfacet
  facet normal 0.12241 0.99248 -0
    outer loop
      vertex 5.86858 19.3384 2.5
      vertex 4.91623 19.4559 12.5
      vertex 5.86858 19.3384 12.5
    endloop
  endfacet
  facet normal 0.12241 0.99248 0
    outer loop
      vertex 4.91623 19.4559 12.5
      vertex 5.86858 19.3384 2.5
      vertex 4.91623 19.4559 2.5
    endloop
  endfacet
  facet normal 0.359894 0.932993 -0
    outer loop
      vertex 10.4815 18.0618 2.5
      vertex 9.5862 18.4072 12.5
      vertex 10.4815 18.0618 12.5
    endloop
  endfacet
  facet normal 0.359894 0.932993 0
    outer loop
      vertex 9.5862 18.4072 12.5
      vertex 10.4815 18.0618 2.5
      vertex 9.5862 18.4072 2.5
    endloop
  endfacet
  facet normal 0.492899 0.870086 -0
    outer loop
      vertex 13.0507 16.7686 2.5
      vertex 12.2158 17.2416 12.5
      vertex 13.0507 16.7686 12.5
    endloop
  endfacet
  facet normal 0.492899 0.870086 0
    outer loop
      vertex 12.2158 17.2416 12.5
      vertex 13.0507 16.7686 2.5
      vertex 12.2158 17.2416 2.5
    endloop
  endfacet
  facet normal 0.575808 0.817585 -0
    outer loop
      vertex 14.6459 15.7027 2.5
      vertex 13.8614 16.2552 12.5
      vertex 14.6459 15.7027 12.5
    endloop
  endfacet
  facet normal 0.575808 0.817585 0
    outer loop
      vertex 13.8614 16.2552 12.5
      vertex 14.6459 15.7027 2.5
      vertex 13.8614 16.2552 2.5
    endloop
  endfacet
  facet normal 0.653174 0.757208 -0
    outer loop
      vertex 16.129 14.4856 2.5
      vertex 15.4024 15.1124 12.5
      vertex 16.129 14.4856 12.5
    endloop
  endfacet
  facet normal 0.653174 0.757208 0
    outer loop
      vertex 15.4024 15.1124 12.5
      vertex 16.129 14.4856 2.5
      vertex 15.4024 15.1124 2.5
    endloop
  endfacet
  facet normal 0.534997 0.844854 -0
    outer loop
      vertex 13.8614 16.2552 2.5
      vertex 13.0507 16.7686 12.5
      vertex 13.8614 16.2552 12.5
    endloop
  endfacet
  facet normal 0.534997 0.844854 0
    outer loop
      vertex 13.0507 16.7686 12.5
      vertex 13.8614 16.2552 2.5
      vertex 13.0507 16.7686 2.5
    endloop
  endfacet
  facet normal 0.999699 0.0245405 0
    outer loop
      vertex 22.55 0 12.5
      vertex 22.5265 0.959272 2.5
      vertex 22.5265 0.959272 12.5
    endloop
  endfacet
  facet normal 0.999699 0.0245405 0
    outer loop
      vertex 22.5265 0.959272 2.5
      vertex 22.55 0 12.5
      vertex 22.55 0 2.5
    endloop
  endfacet
  facet normal 0.975703 -0.219099 0
    outer loop
      vertex 21.9641 -4.75026 12.5
      vertex 22.1744 -3.81402 2.5
      vertex 22.1744 -3.81402 12.5
    endloop
  endfacet
  facet normal 0.975703 -0.219099 0
    outer loop
      vertex 22.1744 -3.81402 2.5
      vertex 21.9641 -4.75026 12.5
      vertex 21.9641 -4.75026 2.5
    endloop
  endfacet
  facet normal 0.99729 -0.0735658 0
    outer loop
      vertex 22.4559 -1.91623 12.5
      vertex 22.5265 -0.959272 2.5
      vertex 22.5265 -0.959272 12.5
    endloop
  endfacet
  facet normal 0.99729 -0.0735658 0
    outer loop
      vertex 22.5265 -0.959272 2.5
      vertex 22.4559 -1.91623 12.5
      vertex 22.4559 -1.91623 2.5
    endloop
  endfacet
  facet normal 0.985278 -0.170962 0
    outer loop
      vertex 22.1744 -3.81402 12.5
      vertex 22.3384 -2.86858 2.5
      vertex 22.3384 -2.86858 12.5
    endloop
  endfacet
  facet normal 0.985278 -0.170962 0
    outer loop
      vertex 22.3384 -2.86858 2.5
      vertex 22.1744 -3.81402 12.5
      vertex 22.1744 -3.81402 2.5
    endloop
  endfacet
  facet normal 0.949528 -0.313683 0
    outer loop
      vertex 21.4072 -6.5862 12.5
      vertex 21.7082 -5.67507 2.5
      vertex 21.7082 -5.67507 12.5
    endloop
  endfacet
  facet normal 0.949528 -0.313683 0
    outer loop
      vertex 21.7082 -5.67507 2.5
      vertex 21.4072 -6.5862 12.5
      vertex 21.4072 -6.5862 2.5
    endloop
  endfacet
  facet normal 0.575808 -0.817585 0
    outer loop
      vertex 13.8614 -16.2552 2.5
      vertex 14.6459 -15.7027 12.5
      vertex 13.8614 -16.2552 12.5
    endloop
  endfacet
  facet normal 0.575808 -0.817585 0
    outer loop
      vertex 14.6459 -15.7027 12.5
      vertex 13.8614 -16.2552 2.5
      vertex 14.6459 -15.7027 2.5
    endloop
  endfacet
  facet normal 0.0735658 -0.99729 0
    outer loop
      vertex 3.95927 -19.5265 2.5
      vertex 4.91623 -19.4559 12.5
      vertex 3.95927 -19.5265 12.5
    endloop
  endfacet
  facet normal 0.0735658 -0.99729 0
    outer loop
      vertex 4.91623 -19.4559 12.5
      vertex 3.95927 -19.5265 2.5
      vertex 4.91623 -19.4559 2.5
    endloop
  endfacet
  facet normal 0.12241 -0.99248 0
    outer loop
      vertex 4.91623 -19.4559 2.5
      vertex 5.86858 -19.3384 12.5
      vertex 4.91623 -19.4559 12.5
    endloop
  endfacet
  facet normal 0.12241 -0.99248 0
    outer loop
      vertex 5.86858 -19.3384 12.5
      vertex 4.91623 -19.4559 2.5
      vertex 5.86858 -19.3384 2.5
    endloop
  endfacet
  facet normal 0.985278 0.170962 0
    outer loop
      vertex 22.3384 2.86858 12.5
      vertex 22.1744 3.81402 2.5
      vertex 22.1744 3.81402 12.5
    endloop
  endfacet
  facet normal 0.985278 0.170962 0
    outer loop
      vertex 22.1744 3.81402 2.5
      vertex 22.3384 2.86858 12.5
      vertex 22.3384 2.86858 2.5
    endloop
  endfacet
  facet normal 0.914209 0.405242 0
    outer loop
      vertex 21.0618 7.48146 12.5
      vertex 20.673 8.3587 2.5
      vertex 20.673 8.3587 12.5
    endloop
  endfacet
  facet normal 0.914209 0.405242 0
    outer loop
      vertex 20.673 8.3587 2.5
      vertex 21.0618 7.48146 12.5
      vertex 21.0618 7.48146 2.5
    endloop
  endfacet
  facet normal 0.932993 0.359894 0
    outer loop
      vertex 21.4072 6.5862 12.5
      vertex 21.0618 7.48146 2.5
      vertex 21.0618 7.48146 12.5
    endloop
  endfacet
  facet normal 0.932993 0.359894 0
    outer loop
      vertex 21.0618 7.48146 2.5
      vertex 21.4072 6.5862 12.5
      vertex 21.4072 6.5862 2.5
    endloop
  endfacet
  facet normal 0.0245398 0.999699 -0
    outer loop
      vertex 3.95927 19.5265 2.5
      vertex 3.12927 19.5468 12.5
      vertex 3.95927 19.5265 12.5
    endloop
  endfacet
  facet normal 0.0245398 0.999699 0
    outer loop
      vertex 3.12927 19.5468 12.5
      vertex 3.95927 19.5265 2.5
      vertex 3.12927 19.5468 2.5
    endloop
  endfacet
  facet normal 0.313683 0.949528 -0
    outer loop
      vertex 9.5862 18.4072 2.5
      vertex 8.67507 18.7082 12.5
      vertex 9.5862 18.4072 12.5
    endloop
  endfacet
  facet normal 0.313683 0.949528 0
    outer loop
      vertex 8.67507 18.7082 12.5
      vertex 9.5862 18.4072 2.5
      vertex 8.67507 18.7082 2.5
    endloop
  endfacet
  facet normal 0.405242 0.914209 -0
    outer loop
      vertex 11.3587 17.673 2.5
      vertex 10.4815 18.0618 12.5
      vertex 11.3587 17.673 12.5
    endloop
  endfacet
  facet normal 0.405242 0.914209 0
    outer loop
      vertex 10.4815 18.0618 12.5
      vertex 11.3587 17.673 2.5
      vertex 10.4815 18.0618 2.5
    endloop
  endfacet
  facet normal 0 0 1
    outer loop
      vertex 19.8 0 12.5
      vertex 22.55 0 12.5
      vertex 22.5265 0.959272 12.5
    endloop
  endfacet
  facet normal -0 0 1
    outer loop
      vertex 19.7761 0.971539 12.5
      vertex 22.5265 0.959272 12.5
      vertex 22.4559 1.91623 12.5
    endloop
  endfacet
  facet normal 0 0 1
    outer loop
      vertex 22.55 0 12.5
      vertex 19.8 0 12.5
      vertex 22.5265 -0.959272 12.5
    endloop
  endfacet
  facet normal -0 0 1
    outer loop
      vertex 19.7047 1.94074 12.5
      vertex 22.4559 1.91623 12.5
      vertex 22.3384 2.86858 12.5
    endloop
  endfacet
  facet normal 0 0 1
    outer loop
      vertex 19.7761 -0.971539 12.5
      vertex 22.5265 -0.959272 12.5
      vertex 19.8 0 12.5
    endloop
  endfacet
  facet normal -0 0 1
    outer loop
      vertex 19.5857 2.90526 12.5
      vertex 22.3384 2.86858 12.5
      vertex 22.1744 3.81402 12.5
    endloop
  endfacet
  facet normal 0 0 1
    outer loop
      vertex 22.5265 -0.959272 12.5
      vertex 19.7761 -0.971539 12.5
      vertex 22.4559 -1.91623 12.5
    endloop
  endfacet
  facet normal -0 0 1
    outer loop
      vertex 19.4195 3.86279 12.5
      vertex 22.1744 3.81402 12.5
      vertex 21.9641 4.75026 12.5
    endloop
  endfacet
  facet normal 0 0 1
    outer loop
      vertex 19.7047 -1.94074 12.5
      vertex 22.4559 -1.91623 12.5
      vertex 19.7761 -0.971539 12.5
    endloop
  endfacet
  facet normal -0 0 1
    outer loop
      vertex 19.2066 4.81101 12.5
      vertex 21.9641 4.75026 12.5
      vertex 21.7082 5.67507 12.5
    endloop
  endfacet
  facet normal 0 0 1
    outer loop
      vertex 22.4559 -1.91623 12.5
      vertex 19.7047 -1.94074 12.5
      vertex 22.3384 -2.86858 12.5
    endloop
  endfacet
  facet normal -0 0 1
    outer loop
      vertex 18.9474 5.74764 12.5
      vertex 21.7082 5.67507 12.5
      vertex 21.4072 6.5862 12.5
    endloop
  endfacet
  facet normal 0 0 1
    outer loop
      vertex 19.5857 -2.90526 12.5
      vertex 22.3384 -2.86858 12.5
      vertex 19.7047 -1.94074 12.5
    endloop
  endfacet
  facet normal 0 0 1
    outer loop
      vertex 18.9474 5.74764 12.5
      vertex 21.4072 6.5862 12.5
      vertex 21.0618 7.48146 12.5
    endloop
  endfacet
  facet normal 0 0 1
    outer loop
      vertex 22.3384 -2.86858 12.5
      vertex 19.5857 -2.90526 12.5
      vertex 22.1744 -3.81402 12.5
    endloop
  endfacet
  facet normal 0 0 1
    outer loop
      vertex 18.6426 6.67042 12.5
      vertex 21.0618 7.48146 12.5
      vertex 20.673 8.3587 12.5
    endloop
  endfacet
  facet normal 0 0 1
    outer loop
      vertex 19.4195 -3.86279 12.5
      vertex 22.1744 -3.81402 12.5
      vertex 19.5857 -2.90526 12.5
    endloop
  endfacet
  facet normal 0 0 1
    outer loop
      vertex 18.2928 7.57713 12.5
      vertex 20.673 8.3587 12.5
      vertex 20.2416 9.21581 12.5
    endloop
  endfacet
  facet normal 0 0 1
    outer loop
      vertex 22.1744 -3.81402 12.5
      vertex 19.4195 -3.86279 12.5
      vertex 21.9641 -4.75026 12.5
    endloop
  endfacet
  facet normal 0 0 1
    outer loop
      vertex 19.2066 -4.81101 12.5
      vertex 21.9641 -4.75026 12.5
      vertex 19.4195 -3.86279 12.5
    endloop
  endfacet
  facet normal 0 0 1
    outer loop
      vertex 22.5265 0.959272 12.5
      vertex 19.7761 0.971539 12.5
      vertex 19.8 0 12.5
    endloop
  endfacet
  facet normal 0 0 1
    outer loop
      vertex 17.899 8.46559 12.5
      vertex 20.2416 9.21581 12.5
      vertex 19.7686 10.0507 12.5
    endloop
  endfacet
  facet normal 0 0 1
    outer loop
      vertex 22.4559 1.91623 12.5
      vertex 19.7047 1.94074 12.5
      vertex 19.7761 0.971539 12.5
    endloop
  endfacet
  facet normal 0 0 1
    outer loop
      vertex 22.3384 2.86858 12.5
      vertex 19.5857 2.90526 12.5
      vertex 19.7047 1.94074 12.5
    endloop
  endfacet
  facet normal 0 0 1
    outer loop
      vertex 22.1744 3.81402 12.5
      vertex 19.4195 3.86279 12.5
      vertex 19.5857 2.90526 12.5
    endloop
  endfacet
  facet normal 0 0 1
    outer loop
      vertex 17.462 9.33366 12.5
      vertex 19.7686 10.0507 12.5
      vertex 19.2552 10.8614 12.5
    endloop
  endfacet
  facet normal 0 0 1
    outer loop
      vertex 21.9641 4.75026 12.5
      vertex 19.2066 4.81101 12.5
      vertex 19.4195 3.86279 12.5
    endloop
  endfacet
  facet normal 0 0 1
    outer loop
      vertex 21.7082 5.67507 12.5
      vertex 18.9474 5.74764 12.5
      vertex 19.2066 4.81101 12.5
    endloop
  endfacet
  facet normal 0 0 1
    outer loop
      vertex 16.983 10.1792 12.5
      vertex 19.2552 10.8614 12.5
      vertex 18.7027 11.6459 12.5
    endloop
  endfacet
  facet normal 0 0 1
    outer loop
      vertex 21.0618 7.48146 12.5
      vertex 18.6426 6.67042 12.5
      vertex 18.9474 5.74764 12.5
    endloop
  endfacet
  facet normal 0 0 1
    outer loop
      vertex 20.673 8.3587 12.5
      vertex 18.2928 7.57713 12.5
      vertex 18.6426 6.67042 12.5
    endloop
  endfacet
  facet normal 0 0 1
    outer loop
      vertex 16.4631 11.0003 12.5
      vertex 18.7027 11.6459 12.5
      vertex 18.1124 12.4024 12.5
    endloop
  endfacet
  facet normal 0 0 1
    outer loop
      vertex 20.2416 9.21581 12.5
      vertex 17.899 8.46559 12.5
      vertex 18.2928 7.57713 12.5
    endloop
  endfacet
  facet normal 0 0 1
    outer loop
      vertex 15.9035 11.7948 12.5
      vertex 18.1124 12.4024 12.5
      vertex 17.4856 13.129 12.5
    endloop
  endfacet
  facet normal 0 0 1
    outer loop
      vertex 19.7686 10.0507 12.5
      vertex 17.462 9.33366 12.5
      vertex 17.899 8.46559 12.5
    endloop
  endfacet
  facet normal 0 0 1
    outer loop
      vertex 19.2552 10.8614 12.5
      vertex 16.983 10.1792 12.5
      vertex 17.462 9.33366 12.5
    endloop
  endfacet
  facet normal 0 0 1
    outer loop
      vertex 15.9035 11.7948 12.5
      vertex 17.4856 13.129 12.5
      vertex 16.8239 13.8239 12.5
    endloop
  endfacet
  facet normal 0 0 1
    outer loop
      vertex 18.7027 11.6459 12.5
      vertex 16.4631 11.0003 12.5
      vertex 16.983 10.1792 12.5
    endloop
  endfacet
  facet normal 0 0 1
    outer loop
      vertex 15.3056 12.561 12.5
      vertex 16.8239 13.8239 12.5
      vertex 16.129 14.4856 12.5
    endloop
  endfacet
  facet normal 0 0 1
    outer loop
      vertex 18.1124 12.4024 12.5
      vertex 15.9035 11.7948 12.5
      vertex 16.4631 11.0003 12.5
    endloop
  endfacet
  facet normal 0 0 1
    outer loop
      vertex 14.6708 13.2969 12.5
      vertex 16.129 14.4856 12.5
      vertex 15.4024 15.1124 12.5
    endloop
  endfacet
  facet normal 0 0 1
    outer loop
      vertex 16.8239 13.8239 12.5
      vertex 15.3056 12.561 12.5
      vertex 15.9035 11.7948 12.5
    endloop
  endfacet
  facet normal 0 0 1
    outer loop
      vertex 16.129 14.4856 12.5
      vertex 14.6708 13.2969 12.5
      vertex 15.3056 12.561 12.5
    endloop
  endfacet
  facet normal 0 0 1
    outer loop
      vertex 14.0007 14.0007 12.5
      vertex 15.4024 15.1124 12.5
      vertex 14.6459 15.7027 12.5
    endloop
  endfacet
  facet normal 0 0 1
    outer loop
      vertex 15.4024 15.1124 12.5
      vertex 14.0007 14.0007 12.5
      vertex 14.6708 13.2969 12.5
    endloop
  endfacet
  facet normal 0 0 1
    outer loop
      vertex 13.2969 14.6708 12.5
      vertex 14.6459 15.7027 12.5
      vertex 13.8614 16.2552 12.5
    endloop
  endfacet
  facet normal 0 0 1
    outer loop
      vertex 14.6459 15.7027 12.5
      vertex 13.2969 14.6708 12.5
      vertex 14.0007 14.0007 12.5
    endloop
  endfacet
  facet normal 0 0 1
    outer loop
      vertex 12.561 15.3056 12.5
      vertex 13.8614 16.2552 12.5
      vertex 13.0507 16.7686 12.5
    endloop
  endfacet
  facet normal 0 0 1
    outer loop
      vertex 13.8614 16.2552 12.5
      vertex 12.561 15.3056 12.5
      vertex 13.2969 14.6708 12.5
    endloop
  endfacet
  facet normal 0 0 1
    outer loop
      vertex 11.7948 15.9035 12.5
      vertex 13.0507 16.7686 12.5
      vertex 12.2158 17.2416 12.5
    endloop
  endfacet
  facet normal 0 0 1
    outer loop
      vertex 13.0507 16.7686 12.5
      vertex 11.7948 15.9035 12.5
      vertex 12.561 15.3056 12.5
    endloop
  endfacet
  facet normal 0 0 1
    outer loop
      vertex 11.0003 16.4631 12.5
      vertex 12.2158 17.2416 12.5
      vertex 11.3587 17.673 12.5
    endloop
  endfacet
  facet normal 0 0 1
    outer loop
      vertex 12.2158 17.2416 12.5
      vertex 11.0003 16.4631 12.5
      vertex 11.7948 15.9035 12.5
    endloop
  endfacet
  facet normal 0 0 1
    outer loop
      vertex 10.1792 16.983 12.5
      vertex 11.3587 17.673 12.5
      vertex 10.4815 18.0618 12.5
    endloop
  endfacet
  facet normal 0 0 1
    outer loop
      vertex 11.3587 17.673 12.5
      vertex 10.1792 16.983 12.5
      vertex 11.0003 16.4631 12.5
    endloop
  endfacet
  facet normal 0 0 1
    outer loop
      vertex 9.33366 17.462 12.5
      vertex 10.4815 18.0618 12.5
      vertex 9.5862 18.4072 12.5
    endloop
  endfacet
  facet normal 0 0 1
    outer loop
      vertex 10.4815 18.0618 12.5
      vertex 9.33366 17.462 12.5
      vertex 10.1792 16.983 12.5
    endloop
  endfacet
  facet normal 0 0 1
    outer loop
      vertex 8.46559 17.899 12.5
      vertex 9.5862 18.4072 12.5
      vertex 8.67507 18.7082 12.5
    endloop
  endfacet
  facet normal 0 0 1
    outer loop
      vertex 9.5862 18.4072 12.5
      vertex 8.46559 17.899 12.5
      vertex 9.33366 17.462 12.5
    endloop
  endfacet
  facet normal 0 0 1
    outer loop
      vertex 7.57713 18.2928 12.5
      vertex 8.67507 18.7082 12.5
      vertex 7.75026 18.9641 12.5
    endloop
  endfacet
  facet normal 0 0 1
    outer loop
      vertex 8.67507 18.7082 12.5
      vertex 7.57713 18.2928 12.5
      vertex 8.46559 17.899 12.5
    endloop
  endfacet
  facet normal 0 0 1
    outer loop
      vertex 6.67042 18.6426 12.5
      vertex 7.75026 18.9641 12.5
      vertex 6.81402 19.1744 12.5
    endloop
  endfacet
  facet normal 0 0 1
    outer loop
      vertex 7.75026 18.9641 12.5
      vertex 6.67042 18.6426 12.5
      vertex 7.57713 18.2928 12.5
    endloop
  endfacet
  facet normal 0 0 1
    outer loop
      vertex 5.86858 19.3384 12.5
      vertex 6.67042 18.6426 12.5
      vertex 6.81402 19.1744 12.5
    endloop
  endfacet
  facet normal 0 0 1
    outer loop
      vertex 5.86858 19.3384 12.5
      vertex 5.74764 18.9474 12.5
      vertex 6.67042 18.6426 12.5
    endloop
  endfacet
  facet normal 0 0 1
    outer loop
      vertex 4.91623 19.4559 12.5
      vertex 5.74764 18.9474 12.5
      vertex 5.86858 19.3384 12.5
    endloop
  endfacet
  facet normal 0 0 1
    outer loop
      vertex 4.91623 19.4559 12.5
      vertex 4.81101 19.2066 12.5
      vertex 5.74764 18.9474 12.5
    endloop
  endfacet
  facet normal 0 0 1
    outer loop
      vertex 3.95927 19.5265 12.5
      vertex 4.81101 19.2066 12.5
      vertex 4.91623 19.4559 12.5
    endloop
  endfacet
  facet normal 0 0 1
    outer loop
      vertex 3.95927 19.5265 12.5
      vertex 3.86279 19.4195 12.5
      vertex 4.81101 19.2066 12.5
    endloop
  endfacet
  facet normal 0 -0 1
    outer loop
      vertex 3.86279 19.4195 12.5
      vertex 3.95927 19.5265 12.5
      vertex 3.12927 19.5468 12.5
    endloop
  endfacet
  facet normal 0 0 1
    outer loop
      vertex 21.9641 -4.75026 12.5
      vertex 19.2066 -4.81101 12.5
      vertex 21.7082 -5.67507 12.5
    endloop
  endfacet
  facet normal 0 0 1
    outer loop
      vertex 18.9474 -5.74764 12.5
      vertex 21.7082 -5.67507 12.5
      vertex 19.2066 -4.81101 12.5
    endloop
  endfacet
  facet normal 0 0 1
    outer loop
      vertex 21.7082 -5.67507 12.5
      vertex 18.9474 -5.74764 12.5
      vertex 21.4072 -6.5862 12.5
    endloop
  endfacet
  facet normal 0 0 1
    outer loop
      vertex 21.4072 -6.5862 12.5
      vertex 18.9474 -5.74764 12.5
      vertex 21.0618 -7.48146 12.5
    endloop
  endfacet
  facet normal -0 0 1
    outer loop
      vertex 18.6426 -6.67042 12.5
      vertex 21.0618 -7.48146 12.5
      vertex 18.9474 -5.74764 12.5
    endloop
  endfacet
  facet normal 0 0 1
    outer loop
      vertex 21.0618 -7.48146 12.5
      vertex 18.6426 -6.67042 12.5
      vertex 20.673 -8.3587 12.5
    endloop
  endfacet
  facet normal -0 0 1
    outer loop
      vertex 18.2928 -7.57713 12.5
      vertex 20.673 -8.3587 12.5
      vertex 18.6426 -6.67042 12.5
    endloop
  endfacet
  facet normal 0 0 1
    outer loop
      vertex 20.673 -8.3587 12.5
      vertex 18.2928 -7.57713 12.5
      vertex 20.2416 -9.21581 12.5
    endloop
  endfacet
  facet normal -0 0 1
    outer loop
      vertex 17.899 -8.46559 12.5
      vertex 20.2416 -9.21581 12.5
      vertex 18.2928 -7.57713 12.5
    endloop
  endfacet
  facet normal 0 0 1
    outer loop
      vertex 20.2416 -9.21581 12.5
      vertex 17.899 -8.46559 12.5
      vertex 19.7686 -10.0507 12.5
    endloop
  endfacet
  facet normal -0 0 1
    outer loop
      vertex 17.462 -9.33366 12.5
      vertex 19.7686 -10.0507 12.5
      vertex 17.899 -8.46559 12.5
    endloop
  endfacet
  facet normal 0 0 1
    outer loop
      vertex 19.7686 -10.0507 12.5
      vertex 17.462 -9.33366 12.5
      vertex 19.2552 -10.8614 12.5
    endloop
  endfacet
  facet normal -0 0 1
    outer loop
      vertex 16.983 -10.1792 12.5
      vertex 19.2552 -10.8614 12.5
      vertex 17.462 -9.33366 12.5
    endloop
  endfacet
  facet normal 0 0 1
    outer loop
      vertex 19.2552 -10.8614 12.5
      vertex 16.983 -10.1792 12.5
      vertex 18.7027 -11.6459 12.5
    endloop
  endfacet
  facet normal -0 0 1
    outer loop
      vertex 16.4631 -11.0003 12.5
      vertex 18.7027 -11.6459 12.5
      vertex 16.983 -10.1792 12.5
    endloop
  endfacet
  facet normal 0 0 1
    outer loop
      vertex 18.7027 -11.6459 12.5
      vertex 16.4631 -11.0003 12.5
      vertex 18.1124 -12.4024 12.5
    endloop
  endfacet
  facet normal -0 0 1
    outer loop
      vertex 15.9035 -11.7948 12.5
      vertex 18.1124 -12.4024 12.5
      vertex 16.4631 -11.0003 12.5
    endloop
  endfacet
  facet normal 0 0 1
    outer loop
      vertex 18.1124 -12.4024 12.5
      vertex 15.9035 -11.7948 12.5
      vertex 17.4856 -13.129 12.5
    endloop
  endfacet
  facet normal 0 0 1
    outer loop
      vertex 17.4856 -13.129 12.5
      vertex 15.9035 -11.7948 12.5
      vertex 16.8239 -13.8239 12.5
    endloop
  endfacet
  facet normal -0 0 1
    outer loop
      vertex 15.3056 -12.561 12.5
      vertex 16.8239 -13.8239 12.5
      vertex 15.9035 -11.7948 12.5
    endloop
  endfacet
  facet normal 0 0 1
    outer loop
      vertex 16.8239 -13.8239 12.5
      vertex 15.3056 -12.561 12.5
      vertex 16.129 -14.4856 12.5
    endloop
  endfacet
  facet normal -0 0 1
    outer loop
      vertex 14.6708 -13.2969 12.5
      vertex 16.129 -14.4856 12.5
      vertex 15.3056 -12.561 12.5
    endloop
  endfacet
  facet normal 0 0 1
    outer loop
      vertex 16.129 -14.4856 12.5
      vertex 14.6708 -13.2969 12.5
      vertex 15.4024 -15.1124 12.5
    endloop
  endfacet
  facet normal -0 0 1
    outer loop
      vertex 14.0007 -14.0007 12.5
      vertex 15.4024 -15.1124 12.5
      vertex 14.6708 -13.2969 12.5
    endloop
  endfacet
  facet normal 0 0 1
    outer loop
      vertex 15.4024 -15.1124 12.5
      vertex 14.0007 -14.0007 12.5
      vertex 14.6459 -15.7027 12.5
    endloop
  endfacet
  facet normal -0 0 1
    outer loop
      vertex 13.2969 -14.6708 12.5
      vertex 14.6459 -15.7027 12.5
      vertex 14.0007 -14.0007 12.5
    endloop
  endfacet
  facet normal 0 0 1
    outer loop
      vertex 14.6459 -15.7027 12.5
      vertex 13.2969 -14.6708 12.5
      vertex 13.8614 -16.2552 12.5
    endloop
  endfacet
  facet normal -0 0 1
    outer loop
      vertex 12.561 -15.3056 12.5
      vertex 13.8614 -16.2552 12.5
      vertex 13.2969 -14.6708 12.5
    endloop
  endfacet
  facet normal 0 0 1
    outer loop
      vertex 13.8614 -16.2552 12.5
      vertex 12.561 -15.3056 12.5
      vertex 13.0507 -16.7686 12.5
    endloop
  endfacet
  facet normal -0 0 1
    outer loop
      vertex 11.7948 -15.9035 12.5
      vertex 13.0507 -16.7686 12.5
      vertex 12.561 -15.3056 12.5
    endloop
  endfacet
  facet normal 0 0 1
    outer loop
      vertex 13.0507 -16.7686 12.5
      vertex 11.7948 -15.9035 12.5
      vertex 12.2158 -17.2416 12.5
    endloop
  endfacet
  facet normal -0 0 1
    outer loop
      vertex 11.0003 -16.4631 12.5
      vertex 12.2158 -17.2416 12.5
      vertex 11.7948 -15.9035 12.5
    endloop
  endfacet
  facet normal 0 0 1
    outer loop
      vertex 12.2158 -17.2416 12.5
      vertex 11.0003 -16.4631 12.5
      vertex 11.3587 -17.673 12.5
    endloop
  endfacet
  facet normal -0 0 1
    outer loop
      vertex 10.1792 -16.983 12.5
      vertex 11.3587 -17.673 12.5
      vertex 11.0003 -16.4631 12.5
    endloop
  endfacet
  facet normal 0 0 1
    outer loop
      vertex 11.3587 -17.673 12.5
      vertex 10.1792 -16.983 12.5
      vertex 10.4815 -18.0618 12.5
    endloop
  endfacet
  facet normal -0 0 1
    outer loop
      vertex 9.33366 -17.462 12.5
      vertex 10.4815 -18.0618 12.5
      vertex 10.1792 -16.983 12.5
    endloop
  endfacet
  facet normal 0 0 1
    outer loop
      vertex 10.4815 -18.0618 12.5
      vertex 9.33366 -17.462 12.5
      vertex 9.5862 -18.4072 12.5
    endloop
  endfacet
  facet normal -0 0 1
    outer loop
      vertex 8.46559 -17.899 12.5
      vertex 9.5862 -18.4072 12.5
      vertex 9.33366 -17.462 12.5
    endloop
  endfacet
  facet normal 0 0 1
    outer loop
      vertex 9.5862 -18.4072 12.5
      vertex 8.46559 -17.899 12.5
      vertex 8.67507 -18.7082 12.5
    endloop
  endfacet
  facet normal -0 0 1
    outer loop
      vertex 7.57713 -18.2928 12.5
      vertex 8.67507 -18.7082 12.5
      vertex 8.46559 -17.899 12.5
    endloop
  endfacet
  facet normal 0 0 1
    outer loop
      vertex 8.67507 -18.7082 12.5
      vertex 7.57713 -18.2928 12.5
      vertex 7.75026 -18.9641 12.5
    endloop
  endfacet
  facet normal -0 0 1
    outer loop
      vertex 6.67042 -18.6426 12.5
      vertex 7.75026 -18.9641 12.5
      vertex 7.57713 -18.2928 12.5
    endloop
  endfacet
  facet normal 0 0 1
    outer loop
      vertex 7.75026 -18.9641 12.5
      vertex 6.67042 -18.6426 12.5
      vertex 6.81402 -19.1744 12.5
    endloop
  endfacet
  facet normal 0 0 1
    outer loop
      vertex 6.67042 -18.6426 12.5
      vertex 5.86858 -19.3384 12.5
      vertex 6.81402 -19.1744 12.5
    endloop
  endfacet
  facet normal -0 0 1
    outer loop
      vertex 5.74764 -18.9474 12.5
      vertex 5.86858 -19.3384 12.5
      vertex 6.67042 -18.6426 12.5
    endloop
  endfacet
  facet normal 0 0 1
    outer loop
      vertex 5.74764 -18.9474 12.5
      vertex 4.91623 -19.4559 12.5
      vertex 5.86858 -19.3384 12.5
    endloop
  endfacet
  facet normal -0 0 1
    outer loop
      vertex 4.81101 -19.2066 12.5
      vertex 4.91623 -19.4559 12.5
      vertex 5.74764 -18.9474 12.5
    endloop
  endfacet
  facet normal 0 0 1
    outer loop
      vertex 4.81101 -19.2066 12.5
      vertex 3.95927 -19.5265 12.5
      vertex 4.91623 -19.4559 12.5
    endloop
  endfacet
  facet normal -0 0 1
    outer loop
      vertex 3.86279 -19.4195 12.5
      vertex 3.95927 -19.5265 12.5
      vertex 4.81101 -19.2066 12.5
    endloop
  endfacet
  facet normal 0 0 1
    outer loop
      vertex 3.95927 -19.5265 12.5
      vertex 3.86279 -19.4195 12.5
      vertex 3.12927 -19.5468 12.5
    endloop
  endfacet
  facet normal 0.99248 -0.12241 0
    outer loop
      vertex 22.3384 -2.86858 12.5
      vertex 22.4559 -1.91623 2.5
      vertex 22.4559 -1.91623 12.5
    endloop
  endfacet
  facet normal 0.99248 -0.12241 0
    outer loop
      vertex 22.4559 -1.91623 2.5
      vertex 22.3384 -2.86858 12.5
      vertex 22.3384 -2.86858 2.5
    endloop
  endfacet
  facet normal 0.870086 -0.492899 0
    outer loop
      vertex 19.7686 -10.0507 12.5
      vertex 20.2416 -9.21581 2.5
      vertex 20.2416 -9.21581 12.5
    endloop
  endfacet
  facet normal 0.870086 -0.492899 0
    outer loop
      vertex 20.2416 -9.21581 2.5
      vertex 19.7686 -10.0507 12.5
      vertex 19.7686 -10.0507 2.5
    endloop
  endfacet
  facet normal 0.914209 -0.405242 0
    outer loop
      vertex 20.673 -8.3587 12.5
      vertex 21.0618 -7.48146 2.5
      vertex 21.0618 -7.48146 12.5
    endloop
  endfacet
  facet normal 0.914209 -0.405242 0
    outer loop
      vertex 21.0618 -7.48146 2.5
      vertex 20.673 -8.3587 12.5
      vertex 20.673 -8.3587 2.5
    endloop
  endfacet
  facet normal 0.788348 -0.61523 0
    outer loop
      vertex 18.1124 -12.4024 12.5
      vertex 18.7027 -11.6459 2.5
      vertex 18.7027 -11.6459 12.5
    endloop
  endfacet
  facet normal 0.788348 -0.61523 0
    outer loop
      vertex 18.7027 -11.6459 2.5
      vertex 18.1124 -12.4024 12.5
      vertex 18.1124 -12.4024 2.5
    endloop
  endfacet
  facet normal 0.170962 -0.985278 0
    outer loop
      vertex 5.86858 -19.3384 2.5
      vertex 6.81402 -19.1744 12.5
      vertex 5.86858 -19.3384 12.5
    endloop
  endfacet
  facet normal 0.170962 -0.985278 0
    outer loop
      vertex 6.81402 -19.1744 12.5
      vertex 5.86858 -19.3384 2.5
      vertex 6.81402 -19.1744 2.5
    endloop
  endfacet
  facet normal 0.219099 -0.975703 0
    outer loop
      vertex 6.81402 -19.1744 2.5
      vertex 7.75026 -18.9641 12.5
      vertex 6.81402 -19.1744 12.5
    endloop
  endfacet
  facet normal 0.219099 -0.975703 0
    outer loop
      vertex 7.75026 -18.9641 12.5
      vertex 6.81402 -19.1744 2.5
      vertex 7.75026 -18.9641 2.5
    endloop
  endfacet
  facet normal 0.266713 -0.963776 0
    outer loop
      vertex 7.75026 -18.9641 2.5
      vertex 8.67507 -18.7082 12.5
      vertex 7.75026 -18.9641 12.5
    endloop
  endfacet
  facet normal 0.266713 -0.963776 0
    outer loop
      vertex 8.67507 -18.7082 12.5
      vertex 7.75026 -18.9641 2.5
      vertex 8.67507 -18.7082 2.5
    endloop
  endfacet
  facet normal 0.359894 -0.932993 0
    outer loop
      vertex 9.5862 -18.4072 2.5
      vertex 10.4815 -18.0618 12.5
      vertex 9.5862 -18.4072 12.5
    endloop
  endfacet
  facet normal 0.359894 -0.932993 0
    outer loop
      vertex 10.4815 -18.0618 12.5
      vertex 9.5862 -18.4072 2.5
      vertex 10.4815 -18.0618 2.5
    endloop
  endfacet
  facet normal 0.313683 -0.949528 0
    outer loop
      vertex 8.67507 -18.7082 2.5
      vertex 9.5862 -18.4072 12.5
      vertex 8.67507 -18.7082 12.5
    endloop
  endfacet
  facet normal 0.313683 -0.949528 0
    outer loop
      vertex 9.5862 -18.4072 12.5
      vertex 8.67507 -18.7082 2.5
      vertex 9.5862 -18.4072 2.5
    endloop
  endfacet
  facet normal 0.963776 -0.266713 0
    outer loop
      vertex 21.7082 -5.67507 12.5
      vertex 21.9641 -4.75026 2.5
      vertex 21.9641 -4.75026 12.5
    endloop
  endfacet
  facet normal 0.963776 -0.266713 0
    outer loop
      vertex 21.9641 -4.75026 2.5
      vertex 21.7082 -5.67507 12.5
      vertex 21.7082 -5.67507 2.5
    endloop
  endfacet
  facet normal 0.893225 -0.44961 0
    outer loop
      vertex 20.2416 -9.21581 12.5
      vertex 20.673 -8.3587 2.5
      vertex 20.673 -8.3587 12.5
    endloop
  endfacet
  facet normal 0.893225 -0.44961 0
    outer loop
      vertex 20.673 -8.3587 2.5
      vertex 20.2416 -9.21581 12.5
      vertex 20.2416 -9.21581 2.5
    endloop
  endfacet
  facet normal 0.68954 -0.724247 0
    outer loop
      vertex 16.129 -14.4856 2.5
      vertex 16.8239 -13.8239 12.5
      vertex 16.129 -14.4856 12.5
    endloop
  endfacet
  facet normal 0.68954 -0.724247 0
    outer loop
      vertex 16.8239 -13.8239 12.5
      vertex 16.129 -14.4856 2.5
      vertex 16.8239 -13.8239 2.5
    endloop
  endfacet
  facet normal 0.757208 -0.653174 0
    outer loop
      vertex 17.4856 -13.129 12.5
      vertex 18.1124 -12.4024 2.5
      vertex 18.1124 -12.4024 12.5
    endloop
  endfacet
  facet normal 0.757208 -0.653174 0
    outer loop
      vertex 18.1124 -12.4024 2.5
      vertex 17.4856 -13.129 12.5
      vertex 17.4856 -13.129 2.5
    endloop
  endfacet
  facet normal 0.817584 -0.575809 0
    outer loop
      vertex 18.7027 -11.6459 12.5
      vertex 19.2552 -10.8614 2.5
      vertex 19.2552 -10.8614 12.5
    endloop
  endfacet
  facet normal 0.817584 -0.575809 0
    outer loop
      vertex 19.2552 -10.8614 2.5
      vertex 18.7027 -11.6459 12.5
      vertex 18.7027 -11.6459 2.5
    endloop
  endfacet
  facet normal 0.0245398 -0.999699 0
    outer loop
      vertex 3.12927 -19.5468 2.5
      vertex 3.95927 -19.5265 12.5
      vertex 3.12927 -19.5468 12.5
    endloop
  endfacet
  facet normal 0.0245398 -0.999699 0
    outer loop
      vertex 3.95927 -19.5265 12.5
      vertex 3.12927 -19.5468 2.5
      vertex 3.95927 -19.5265 2.5
    endloop
  endfacet
  facet normal 0 0 -1
    outer loop
      vertex 19.8 0 2.5
      vertex 22.55 0 2.5
      vertex 22.5265 -0.959272 2.5
    endloop
  endfacet
  facet normal 0 0 -1
    outer loop
      vertex 19.7761 -0.971539 2.5
      vertex 22.5265 -0.959272 2.5
      vertex 22.4559 -1.91623 2.5
    endloop
  endfacet
  facet normal 0 0 -1
    outer loop
      vertex 22.55 0 2.5
      vertex 19.8 0 2.5
      vertex 22.5265 0.959272 2.5
    endloop
  endfacet
  facet normal 0 0 -1
    outer loop
      vertex 19.7047 -1.94074 2.5
      vertex 22.4559 -1.91623 2.5
      vertex 22.3384 -2.86858 2.5
    endloop
  endfacet
  facet normal 0 0 -1
    outer loop
      vertex 19.7761 0.971539 2.5
      vertex 22.5265 0.959272 2.5
      vertex 19.8 0 2.5
    endloop
  endfacet
  facet normal 0 0 -1
    outer loop
      vertex 19.5857 -2.90526 2.5
      vertex 22.3384 -2.86858 2.5
      vertex 22.1744 -3.81402 2.5
    endloop
  endfacet
  facet normal 0 0 -1
    outer loop
      vertex 22.5265 0.959272 2.5
      vertex 19.7761 0.971539 2.5
      vertex 22.4559 1.91623 2.5
    endloop
  endfacet
  facet normal 0 0 -1
    outer loop
      vertex 19.4195 -3.86279 2.5
      vertex 22.1744 -3.81402 2.5
      vertex 21.9641 -4.75026 2.5
    endloop
  endfacet
  facet normal 0 0 -1
    outer loop
      vertex 19.7047 1.94074 2.5
      vertex 22.4559 1.91623 2.5
      vertex 19.7761 0.971539 2.5
    endloop
  endfacet
  facet normal 0 0 -1
    outer loop
      vertex 19.2066 -4.81101 2.5
      vertex 21.9641 -4.75026 2.5
      vertex 21.7082 -5.67507 2.5
    endloop
  endfacet
  facet normal 0 0 -1
    outer loop
      vertex 22.4559 1.91623 2.5
      vertex 19.7047 1.94074 2.5
      vertex 22.3384 2.86858 2.5
    endloop
  endfacet
  facet normal 0 0 -1
    outer loop
      vertex 18.9474 -5.74764 2.5
      vertex 21.7082 -5.67507 2.5
      vertex 21.4072 -6.5862 2.5
    endloop
  endfacet
  facet normal 0 0 -1
    outer loop
      vertex 19.5857 2.90526 2.5
      vertex 22.3384 2.86858 2.5
      vertex 19.7047 1.94074 2.5
    endloop
  endfacet
  facet normal 0 0 -1
    outer loop
      vertex 18.9474 -5.74764 2.5
      vertex 21.4072 -6.5862 2.5
      vertex 21.0618 -7.48146 2.5
    endloop
  endfacet
  facet normal 0 0 -1
    outer loop
      vertex 22.3384 2.86858 2.5
      vertex 19.5857 2.90526 2.5
      vertex 22.1744 3.81402 2.5
    endloop
  endfacet
  facet normal 0 0 -1
    outer loop
      vertex 18.6426 -6.67042 2.5
      vertex 21.0618 -7.48146 2.5
      vertex 20.673 -8.3587 2.5
    endloop
  endfacet
  facet normal 0 0 -1
    outer loop
      vertex 19.4195 3.86279 2.5
      vertex 22.1744 3.81402 2.5
      vertex 19.5857 2.90526 2.5
    endloop
  endfacet
  facet normal 0 0 -1
    outer loop
      vertex 18.2928 -7.57713 2.5
      vertex 20.673 -8.3587 2.5
      vertex 20.2416 -9.21581 2.5
    endloop
  endfacet
  facet normal 0 0 -1
    outer loop
      vertex 22.1744 3.81402 2.5
      vertex 19.4195 3.86279 2.5
      vertex 21.9641 4.75026 2.5
    endloop
  endfacet
  facet normal 0 0 -1
    outer loop
      vertex 19.2066 4.81101 2.5
      vertex 21.9641 4.75026 2.5
      vertex 19.4195 3.86279 2.5
    endloop
  endfacet
  facet normal -0 0 -1
    outer loop
      vertex 22.5265 -0.959272 2.5
      vertex 19.7761 -0.971539 2.5
      vertex 19.8 0 2.5
    endloop
  endfacet
  facet normal 0 0 -1
    outer loop
      vertex 17.899 -8.46559 2.5
      vertex 20.2416 -9.21581 2.5
      vertex 19.7686 -10.0507 2.5
    endloop
  endfacet
  facet normal -0 0 -1
    outer loop
      vertex 22.4559 -1.91623 2.5
      vertex 19.7047 -1.94074 2.5
      vertex 19.7761 -0.971539 2.5
    endloop
  endfacet
  facet normal -0 0 -1
    outer loop
      vertex 22.3384 -2.86858 2.5
      vertex 19.5857 -2.90526 2.5
      vertex 19.7047 -1.94074 2.5
    endloop
  endfacet
  facet normal -0 0 -1
    outer loop
      vertex 22.1744 -3.81402 2.5
      vertex 19.4195 -3.86279 2.5
      vertex 19.5857 -2.90526 2.5
    endloop
  endfacet
  facet normal 0 0 -1
    outer loop
      vertex 17.462 -9.33366 2.5
      vertex 19.7686 -10.0507 2.5
      vertex 19.2552 -10.8614 2.5
    endloop
  endfacet
  facet normal -0 0 -1
    outer loop
      vertex 21.9641 -4.75026 2.5
      vertex 19.2066 -4.81101 2.5
      vertex 19.4195 -3.86279 2.5
    endloop
  endfacet
  facet normal -0 0 -1
    outer loop
      vertex 21.7082 -5.67507 2.5
      vertex 18.9474 -5.74764 2.5
      vertex 19.2066 -4.81101 2.5
    endloop
  endfacet
  facet normal 0 0 -1
    outer loop
      vertex 16.983 -10.1792 2.5
      vertex 19.2552 -10.8614 2.5
      vertex 18.7027 -11.6459 2.5
    endloop
  endfacet
  facet normal 0 0 -1
    outer loop
      vertex 21.0618 -7.48146 2.5
      vertex 18.6426 -6.67042 2.5
      vertex 18.9474 -5.74764 2.5
    endloop
  endfacet
  facet normal 0 0 -1
    outer loop
      vertex 20.673 -8.3587 2.5
      vertex 18.2928 -7.57713 2.5
      vertex 18.6426 -6.67042 2.5
    endloop
  endfacet
  facet normal 0 0 -1
    outer loop
      vertex 16.4631 -11.0003 2.5
      vertex 18.7027 -11.6459 2.5
      vertex 18.1124 -12.4024 2.5
    endloop
  endfacet
  facet normal 0 0 -1
    outer loop
      vertex 20.2416 -9.21581 2.5
      vertex 17.899 -8.46559 2.5
      vertex 18.2928 -7.57713 2.5
    endloop
  endfacet
  facet normal 0 0 -1
    outer loop
      vertex 15.9035 -11.7948 2.5
      vertex 18.1124 -12.4024 2.5
      vertex 17.4856 -13.129 2.5
    endloop
  endfacet
  facet normal 0 0 -1
    outer loop
      vertex 19.7686 -10.0507 2.5
      vertex 17.462 -9.33366 2.5
      vertex 17.899 -8.46559 2.5
    endloop
  endfacet
  facet normal 0 0 -1
    outer loop
      vertex 19.2552 -10.8614 2.5
      vertex 16.983 -10.1792 2.5
      vertex 17.462 -9.33366 2.5
    endloop
  endfacet
  facet normal 0 0 -1
    outer loop
      vertex 15.9035 -11.7948 2.5
      vertex 17.4856 -13.129 2.5
      vertex 16.8239 -13.8239 2.5
    endloop
  endfacet
  facet normal 0 0 -1
    outer loop
      vertex 18.7027 -11.6459 2.5
      vertex 16.4631 -11.0003 2.5
      vertex 16.983 -10.1792 2.5
    endloop
  endfacet
  facet normal 0 0 -1
    outer loop
      vertex 15.3056 -12.561 2.5
      vertex 16.8239 -13.8239 2.5
      vertex 16.129 -14.4856 2.5
    endloop
  endfacet
  facet normal 0 0 -1
    outer loop
      vertex 18.1124 -12.4024 2.5
      vertex 15.9035 -11.7948 2.5
      vertex 16.4631 -11.0003 2.5
    endloop
  endfacet
  facet normal 0 0 -1
    outer loop
      vertex 14.6708 -13.2969 2.5
      vertex 16.129 -14.4856 2.5
      vertex 15.4024 -15.1124 2.5
    endloop
  endfacet
  facet normal 0 0 -1
    outer loop
      vertex 16.8239 -13.8239 2.5
      vertex 15.3056 -12.561 2.5
      vertex 15.9035 -11.7948 2.5
    endloop
  endfacet
  facet normal 0 0 -1
    outer loop
      vertex 16.129 -14.4856 2.5
      vertex 14.6708 -13.2969 2.5
      vertex 15.3056 -12.561 2.5
    endloop
  endfacet
  facet normal 0 0 -1
    outer loop
      vertex 14.0007 -14.0007 2.5
      vertex 15.4024 -15.1124 2.5
      vertex 14.6459 -15.7027 2.5
    endloop
  endfacet
  facet normal 0 0 -1
    outer loop
      vertex 15.4024 -15.1124 2.5
      vertex 14.0007 -14.0007 2.5
      vertex 14.6708 -13.2969 2.5
    endloop
  endfacet
  facet normal 0 0 -1
    outer loop
      vertex 13.2969 -14.6708 2.5
      vertex 14.6459 -15.7027 2.5
      vertex 13.8614 -16.2552 2.5
    endloop
  endfacet
  facet normal 0 0 -1
    outer loop
      vertex 14.6459 -15.7027 2.5
      vertex 13.2969 -14.6708 2.5
      vertex 14.0007 -14.0007 2.5
    endloop
  endfacet
  facet normal 0 0 -1
    outer loop
      vertex 12.561 -15.3056 2.5
      vertex 13.8614 -16.2552 2.5
      vertex 13.0507 -16.7686 2.5
    endloop
  endfacet
  facet normal 0 0 -1
    outer loop
      vertex 13.8614 -16.2552 2.5
      vertex 12.561 -15.3056 2.5
      vertex 13.2969 -14.6708 2.5
    endloop
  endfacet
  facet normal 0 0 -1
    outer loop
      vertex 11.7948 -15.9035 2.5
      vertex 13.0507 -16.7686 2.5
      vertex 12.2158 -17.2416 2.5
    endloop
  endfacet
  facet normal 0 0 -1
    outer loop
      vertex 13.0507 -16.7686 2.5
      vertex 11.7948 -15.9035 2.5
      vertex 12.561 -15.3056 2.5
    endloop
  endfacet
  facet normal 0 0 -1
    outer loop
      vertex 11.0003 -16.4631 2.5
      vertex 12.2158 -17.2416 2.5
      vertex 11.3587 -17.673 2.5
    endloop
  endfacet
  facet normal 0 0 -1
    outer loop
      vertex 12.2158 -17.2416 2.5
      vertex 11.0003 -16.4631 2.5
      vertex 11.7948 -15.9035 2.5
    endloop
  endfacet
  facet normal 0 0 -1
    outer loop
      vertex 10.1792 -16.983 2.5
      vertex 11.3587 -17.673 2.5
      vertex 10.4815 -18.0618 2.5
    endloop
  endfacet
  facet normal 0 0 -1
    outer loop
      vertex 11.3587 -17.673 2.5
      vertex 10.1792 -16.983 2.5
      vertex 11.0003 -16.4631 2.5
    endloop
  endfacet
  facet normal 0 0 -1
    outer loop
      vertex 9.33366 -17.462 2.5
      vertex 10.4815 -18.0618 2.5
      vertex 9.5862 -18.4072 2.5
    endloop
  endfacet
  facet normal 0 0 -1
    outer loop
      vertex 10.4815 -18.0618 2.5
      vertex 9.33366 -17.462 2.5
      vertex 10.1792 -16.983 2.5
    endloop
  endfacet
  facet normal 0 0 -1
    outer loop
      vertex 8.46559 -17.899 2.5
      vertex 9.5862 -18.4072 2.5
      vertex 8.67507 -18.7082 2.5
    endloop
  endfacet
  facet normal 0 0 -1
    outer loop
      vertex 9.5862 -18.4072 2.5
      vertex 8.46559 -17.899 2.5
      vertex 9.33366 -17.462 2.5
    endloop
  endfacet
  facet normal 0 0 -1
    outer loop
      vertex 7.57713 -18.2928 2.5
      vertex 8.67507 -18.7082 2.5
      vertex 7.75026 -18.9641 2.5
    endloop
  endfacet
  facet normal 0 0 -1
    outer loop
      vertex 8.67507 -18.7082 2.5
      vertex 7.57713 -18.2928 2.5
      vertex 8.46559 -17.899 2.5
    endloop
  endfacet
  facet normal 0 0 -1
    outer loop
      vertex 6.67042 -18.6426 2.5
      vertex 7.75026 -18.9641 2.5
      vertex 6.81402 -19.1744 2.5
    endloop
  endfacet
  facet normal 0 0 -1
    outer loop
      vertex 7.75026 -18.9641 2.5
      vertex 6.67042 -18.6426 2.5
      vertex 7.57713 -18.2928 2.5
    endloop
  endfacet
  facet normal 0 0 -1
    outer loop
      vertex 5.86858 -19.3384 2.5
      vertex 6.67042 -18.6426 2.5
      vertex 6.81402 -19.1744 2.5
    endloop
  endfacet
  facet normal 0 0 -1
    outer loop
      vertex 5.86858 -19.3384 2.5
      vertex 5.74764 -18.9474 2.5
      vertex 6.67042 -18.6426 2.5
    endloop
  endfacet
  facet normal 0 0 -1
    outer loop
      vertex 4.91623 -19.4559 2.5
      vertex 5.74764 -18.9474 2.5
      vertex 5.86858 -19.3384 2.5
    endloop
  endfacet
  facet normal 0 0 -1
    outer loop
      vertex 4.91623 -19.4559 2.5
      vertex 4.81101 -19.2066 2.5
      vertex 5.74764 -18.9474 2.5
    endloop
  endfacet
  facet normal 0 0 -1
    outer loop
      vertex 3.95927 -19.5265 2.5
      vertex 4.81101 -19.2066 2.5
      vertex 4.91623 -19.4559 2.5
    endloop
  endfacet
  facet normal 0 0 -1
    outer loop
      vertex 3.95927 -19.5265 2.5
      vertex 3.86279 -19.4195 2.5
      vertex 4.81101 -19.2066 2.5
    endloop
  endfacet
  facet normal 0 -0 -1
    outer loop
      vertex 3.86279 -19.4195 2.5
      vertex 3.95927 -19.5265 2.5
      vertex 3.12927 -19.5468 2.5
    endloop
  endfacet
  facet normal 0 0 -1
    outer loop
      vertex 21.9641 4.75026 2.5
      vertex 19.2066 4.81101 2.5
      vertex 21.7082 5.67507 2.5
    endloop
  endfacet
  facet normal 0 0 -1
    outer loop
      vertex 18.9474 5.74764 2.5
      vertex 21.7082 5.67507 2.5
      vertex 19.2066 4.81101 2.5
    endloop
  endfacet
  facet normal 0 0 -1
    outer loop
      vertex 21.7082 5.67507 2.5
      vertex 18.9474 5.74764 2.5
      vertex 21.4072 6.5862 2.5
    endloop
  endfacet
  facet normal -0 0 -1
    outer loop
      vertex 21.4072 6.5862 2.5
      vertex 18.9474 5.74764 2.5
      vertex 21.0618 7.48146 2.5
    endloop
  endfacet
  facet normal 0 0 -1
    outer loop
      vertex 18.6426 6.67042 2.5
      vertex 21.0618 7.48146 2.5
      vertex 18.9474 5.74764 2.5
    endloop
  endfacet
  facet normal -0 0 -1
    outer loop
      vertex 21.0618 7.48146 2.5
      vertex 18.6426 6.67042 2.5
      vertex 20.673 8.3587 2.5
    endloop
  endfacet
  facet normal 0 0 -1
    outer loop
      vertex 18.2928 7.57713 2.5
      vertex 20.673 8.3587 2.5
      vertex 18.6426 6.67042 2.5
    endloop
  endfacet
  facet normal -0 0 -1
    outer loop
      vertex 20.673 8.3587 2.5
      vertex 18.2928 7.57713 2.5
      vertex 20.2416 9.21581 2.5
    endloop
  endfacet
  facet normal 0 0 -1
    outer loop
      vertex 17.899 8.46559 2.5
      vertex 20.2416 9.21581 2.5
      vertex 18.2928 7.57713 2.5
    endloop
  endfacet
  facet normal -0 0 -1
    outer loop
      vertex 20.2416 9.21581 2.5
      vertex 17.899 8.46559 2.5
      vertex 19.7686 10.0507 2.5
    endloop
  endfacet
  facet normal 0 0 -1
    outer loop
      vertex 17.462 9.33366 2.5
      vertex 19.7686 10.0507 2.5
      vertex 17.899 8.46559 2.5
    endloop
  endfacet
  facet normal -0 0 -1
    outer loop
      vertex 19.7686 10.0507 2.5
      vertex 17.462 9.33366 2.5
      vertex 19.2552 10.8614 2.5
    endloop
  endfacet
  facet normal 0 0 -1
    outer loop
      vertex 16.983 10.1792 2.5
      vertex 19.2552 10.8614 2.5
      vertex 17.462 9.33366 2.5
    endloop
  endfacet
  facet normal -0 0 -1
    outer loop
      vertex 19.2552 10.8614 2.5
      vertex 16.983 10.1792 2.5
      vertex 18.7027 11.6459 2.5
    endloop
  endfacet
  facet normal 0 0 -1
    outer loop
      vertex 16.4631 11.0003 2.5
      vertex 18.7027 11.6459 2.5
      vertex 16.983 10.1792 2.5
    endloop
  endfacet
  facet normal -0 0 -1
    outer loop
      vertex 18.7027 11.6459 2.5
      vertex 16.4631 11.0003 2.5
      vertex 18.1124 12.4024 2.5
    endloop
  endfacet
  facet normal 0 0 -1
    outer loop
      vertex 15.9035 11.7948 2.5
      vertex 18.1124 12.4024 2.5
      vertex 16.4631 11.0003 2.5
    endloop
  endfacet
  facet normal -0 0 -1
    outer loop
      vertex 18.1124 12.4024 2.5
      vertex 15.9035 11.7948 2.5
      vertex 17.4856 13.129 2.5
    endloop
  endfacet
  facet normal -0 0 -1
    outer loop
      vertex 17.4856 13.129 2.5
      vertex 15.9035 11.7948 2.5
      vertex 16.8239 13.8239 2.5
    endloop
  endfacet
  facet normal 0 0 -1
    outer loop
      vertex 15.3056 12.561 2.5
      vertex 16.8239 13.8239 2.5
      vertex 15.9035 11.7948 2.5
    endloop
  endfacet
  facet normal -0 0 -1
    outer loop
      vertex 16.8239 13.8239 2.5
      vertex 15.3056 12.561 2.5
      vertex 16.129 14.4856 2.5
    endloop
  endfacet
  facet normal 0 0 -1
    outer loop
      vertex 14.6708 13.2969 2.5
      vertex 16.129 14.4856 2.5
      vertex 15.3056 12.561 2.5
    endloop
  endfacet
  facet normal -0 0 -1
    outer loop
      vertex 16.129 14.4856 2.5
      vertex 14.6708 13.2969 2.5
      vertex 15.4024 15.1124 2.5
    endloop
  endfacet
  facet normal 0 0 -1
    outer loop
      vertex 14.0007 14.0007 2.5
      vertex 15.4024 15.1124 2.5
      vertex 14.6708 13.2969 2.5
    endloop
  endfacet
  facet normal -0 0 -1
    outer loop
      vertex 15.4024 15.1124 2.5
      vertex 14.0007 14.0007 2.5
      vertex 14.6459 15.7027 2.5
    endloop
  endfacet
  facet normal 0 0 -1
    outer loop
      vertex 13.2969 14.6708 2.5
      vertex 14.6459 15.7027 2.5
      vertex 14.0007 14.0007 2.5
    endloop
  endfacet
  facet normal -0 0 -1
    outer loop
      vertex 14.6459 15.7027 2.5
      vertex 13.2969 14.6708 2.5
      vertex 13.8614 16.2552 2.5
    endloop
  endfacet
  facet normal 0 0 -1
    outer loop
      vertex 12.561 15.3056 2.5
      vertex 13.8614 16.2552 2.5
      vertex 13.2969 14.6708 2.5
    endloop
  endfacet
  facet normal -0 0 -1
    outer loop
      vertex 13.8614 16.2552 2.5
      vertex 12.561 15.3056 2.5
      vertex 13.0507 16.7686 2.5
    endloop
  endfacet
  facet normal 0 0 -1
    outer loop
      vertex 11.7948 15.9035 2.5
      vertex 13.0507 16.7686 2.5
      vertex 12.561 15.3056 2.5
    endloop
  endfacet
  facet normal -0 0 -1
    outer loop
      vertex 13.0507 16.7686 2.5
      vertex 11.7948 15.9035 2.5
      vertex 12.2158 17.2416 2.5
    endloop
  endfacet
  facet normal 0 0 -1
    outer loop
      vertex 11.0003 16.4631 2.5
      vertex 12.2158 17.2416 2.5
      vertex 11.7948 15.9035 2.5
    endloop
  endfacet
  facet normal -0 0 -1
    outer loop
      vertex 12.2158 17.2416 2.5
      vertex 11.0003 16.4631 2.5
      vertex 11.3587 17.673 2.5
    endloop
  endfacet
  facet normal 0 0 -1
    outer loop
      vertex 10.1792 16.983 2.5
      vertex 11.3587 17.673 2.5
      vertex 11.0003 16.4631 2.5
    endloop
  endfacet
  facet normal -0 0 -1
    outer loop
      vertex 11.3587 17.673 2.5
      vertex 10.1792 16.983 2.5
      vertex 10.4815 18.0618 2.5
    endloop
  endfacet
  facet normal 0 0 -1
    outer loop
      vertex 9.33366 17.462 2.5
      vertex 10.4815 18.0618 2.5
      vertex 10.1792 16.983 2.5
    endloop
  endfacet
  facet normal -0 0 -1
    outer loop
      vertex 10.4815 18.0618 2.5
      vertex 9.33366 17.462 2.5
      vertex 9.5862 18.4072 2.5
    endloop
  endfacet
  facet normal 0 0 -1
    outer loop
      vertex 8.46559 17.899 2.5
      vertex 9.5862 18.4072 2.5
      vertex 9.33366 17.462 2.5
    endloop
  endfacet
  facet normal -0 0 -1
    outer loop
      vertex 9.5862 18.4072 2.5
      vertex 8.46559 17.899 2.5
      vertex 8.67507 18.7082 2.5
    endloop
  endfacet
  facet normal 0 0 -1
    outer loop
      vertex 7.57713 18.2928 2.5
      vertex 8.67507 18.7082 2.5
      vertex 8.46559 17.899 2.5
    endloop
  endfacet
  facet normal -0 0 -1
    outer loop
      vertex 8.67507 18.7082 2.5
      vertex 7.57713 18.2928 2.5
      vertex 7.75026 18.9641 2.5
    endloop
  endfacet
  facet normal 0 0 -1
    outer loop
      vertex 6.67042 18.6426 2.5
      vertex 7.75026 18.9641 2.5
      vertex 7.57713 18.2928 2.5
    endloop
  endfacet
  facet normal -0 0 -1
    outer loop
      vertex 7.75026 18.9641 2.5
      vertex 6.67042 18.6426 2.5
      vertex 6.81402 19.1744 2.5
    endloop
  endfacet
  facet normal 0 0 -1
    outer loop
      vertex 6.67042 18.6426 2.5
      vertex 5.86858 19.3384 2.5
      vertex 6.81402 19.1744 2.5
    endloop
  endfacet
  facet normal 0 0 -1
    outer loop
      vertex 5.74764 18.9474 2.5
      vertex 5.86858 19.3384 2.5
      vertex 6.67042 18.6426 2.5
    endloop
  endfacet
  facet normal 0 0 -1
    outer loop
      vertex 5.74764 18.9474 2.5
      vertex 4.91623 19.4559 2.5
      vertex 5.86858 19.3384 2.5
    endloop
  endfacet
  facet normal 0 0 -1
    outer loop
      vertex 4.81101 19.2066 2.5
      vertex 4.91623 19.4559 2.5
      vertex 5.74764 18.9474 2.5
    endloop
  endfacet
  facet normal 0 0 -1
    outer loop
      vertex 4.81101 19.2066 2.5
      vertex 3.95927 19.5265 2.5
      vertex 4.91623 19.4559 2.5
    endloop
  endfacet
  facet normal 0 0 -1
    outer loop
      vertex 3.86279 19.4195 2.5
      vertex 3.95927 19.5265 2.5
      vertex 4.81101 19.2066 2.5
    endloop
  endfacet
  facet normal -0 0 -1
    outer loop
      vertex 3.95927 19.5265 2.5
      vertex 3.86279 19.4195 2.5
      vertex 3.12927 19.5468 2.5
    endloop
  endfacet
  facet normal 0.99248 0.12241 0
    outer loop
      vertex 22.4559 1.91623 12.5
      vertex 22.3384 2.86858 2.5
      vertex 22.3384 2.86858 12.5
    endloop
  endfacet
  facet normal 0.99248 0.12241 0
    outer loop
      vertex 22.3384 2.86858 2.5
      vertex 22.4559 1.91623 12.5
      vertex 22.4559 1.91623 2.5
    endloop
  endfacet
  facet normal 0.534997 -0.844854 0
    outer loop
      vertex 13.0507 -16.7686 2.5
      vertex 13.8614 -16.2552 12.5
      vertex 13.0507 -16.7686 12.5
    endloop
  endfacet
  facet normal 0.534997 -0.844854 0
    outer loop
      vertex 13.8614 -16.2552 12.5
      vertex 13.0507 -16.7686 2.5
      vertex 13.8614 -16.2552 2.5
    endloop
  endfacet
  facet normal 0.492899 -0.870086 0
    outer loop
      vertex 12.2158 -17.2416 2.5
      vertex 13.0507 -16.7686 12.5
      vertex 12.2158 -17.2416 12.5
    endloop
  endfacet
  facet normal 0.492899 -0.870086 0
    outer loop
      vertex 13.0507 -16.7686 12.5
      vertex 12.2158 -17.2416 2.5
      vertex 13.0507 -16.7686 2.5
    endloop
  endfacet
  facet normal 0.44961 -0.893225 0
    outer loop
      vertex 11.3587 -17.673 2.5
      vertex 12.2158 -17.2416 12.5
      vertex 11.3587 -17.673 12.5
    endloop
  endfacet
  facet normal 0.44961 -0.893225 0
    outer loop
      vertex 12.2158 -17.2416 12.5
      vertex 11.3587 -17.673 2.5
      vertex 12.2158 -17.2416 2.5
    endloop
  endfacet
  facet normal 0.653174 -0.757208 0
    outer loop
      vertex 15.4024 -15.1124 2.5
      vertex 16.129 -14.4856 12.5
      vertex 15.4024 -15.1124 12.5
    endloop
  endfacet
  facet normal 0.653174 -0.757208 0
    outer loop
      vertex 16.129 -14.4856 12.5
      vertex 15.4024 -15.1124 2.5
      vertex 16.129 -14.4856 2.5
    endloop
  endfacet
  facet normal 0.615231 -0.788347 0
    outer loop
      vertex 14.6459 -15.7027 2.5
      vertex 15.4024 -15.1124 12.5
      vertex 14.6459 -15.7027 12.5
    endloop
  endfacet
  facet normal 0.615231 -0.788347 0
    outer loop
      vertex 15.4024 -15.1124 12.5
      vertex 14.6459 -15.7027 2.5
      vertex 15.4024 -15.1124 2.5
    endloop
  endfacet
  facet normal 0.724247 -0.68954 0
    outer loop
      vertex 16.8239 -13.8239 12.5
      vertex 17.4856 -13.129 2.5
      vertex 17.4856 -13.129 12.5
    endloop
  endfacet
  facet normal 0.724247 -0.68954 0
    outer loop
      vertex 17.4856 -13.129 2.5
      vertex 16.8239 -13.8239 12.5
      vertex 16.8239 -13.8239 2.5
    endloop
  endfacet
  facet normal 0.844854 -0.534997 0
    outer loop
      vertex 19.2552 -10.8614 12.5
      vertex 19.7686 -10.0507 2.5
      vertex 19.7686 -10.0507 12.5
    endloop
  endfacet
  facet normal 0.844854 -0.534997 0
    outer loop
      vertex 19.7686 -10.0507 2.5
      vertex 19.2552 -10.8614 12.5
      vertex 19.2552 -10.8614 2.5
    endloop
  endfacet
  facet normal -0.975702 -0.2191 0
    outer loop
      vertex 19.4195 3.86279 2.5
      vertex 19.2066 4.81101 12.5
      vertex 19.2066 4.81101 2.5
    endloop
  endfacet
  facet normal -0.975702 -0.2191 0
    outer loop
      vertex 19.2066 4.81101 12.5
      vertex 19.4195 3.86279 2.5
      vertex 19.4195 3.86279 12.5
    endloop
  endfacet
  facet normal -0.870086 -0.492899 0
    outer loop
      vertex 17.462 9.33366 2.5
      vertex 16.983 10.1792 12.5
      vertex 16.983 10.1792 2.5
    endloop
  endfacet
  facet normal -0.870086 -0.492899 0
    outer loop
      vertex 16.983 10.1792 12.5
      vertex 17.462 9.33366 2.5
      vertex 17.462 9.33366 12.5
    endloop
  endfacet
  facet normal -0.844854 -0.534997 0
    outer loop
      vertex 16.983 10.1792 2.5
      vertex 16.4631 11.0003 12.5
      vertex 16.4631 11.0003 2.5
    endloop
  endfacet
  facet normal -0.844854 -0.534997 0
    outer loop
      vertex 16.4631 11.0003 12.5
      vertex 16.983 10.1792 2.5
      vertex 16.983 10.1792 12.5
    endloop
  endfacet
  facet normal -0.170961 -0.985278 0
    outer loop
      vertex 3.12927 19.5468 2.5
      vertex 3.86279 19.4195 12.5
      vertex 3.12927 19.5468 12.5
    endloop
  endfacet
  facet normal -0.170961 -0.985278 -0
    outer loop
      vertex 3.86279 19.4195 12.5
      vertex 3.12927 19.5468 2.5
      vertex 3.86279 19.4195 2.5
    endloop
  endfacet
  facet normal -0.449611 -0.893224 0
    outer loop
      vertex 8.46559 17.899 2.5
      vertex 9.33366 17.462 12.5
      vertex 8.46559 17.899 12.5
    endloop
  endfacet
  facet normal -0.449611 -0.893224 -0
    outer loop
      vertex 9.33366 17.462 12.5
      vertex 8.46559 17.899 2.5
      vertex 9.33366 17.462 2.5
    endloop
  endfacet
  facet normal -0.575808 -0.817585 0
    outer loop
      vertex 11.0003 16.4631 2.5
      vertex 11.7948 15.9035 12.5
      vertex 11.0003 16.4631 12.5
    endloop
  endfacet
  facet normal -0.575808 -0.817585 -0
    outer loop
      vertex 11.7948 15.9035 12.5
      vertex 11.0003 16.4631 2.5
      vertex 11.7948 15.9035 2.5
    endloop
  endfacet
  facet normal -0.788347 0.615231 0
    outer loop
      vertex 15.3056 -12.561 2.5
      vertex 15.9035 -11.7948 12.5
      vertex 15.9035 -11.7948 2.5
    endloop
  endfacet
  facet normal -0.788347 0.615231 0
    outer loop
      vertex 15.9035 -11.7948 12.5
      vertex 15.3056 -12.561 2.5
      vertex 15.3056 -12.561 12.5
    endloop
  endfacet
  facet normal -0.359896 0.932993 0
    outer loop
      vertex 7.57713 -18.2928 2.5
      vertex 6.67042 -18.6426 12.5
      vertex 7.57713 -18.2928 12.5
    endloop
  endfacet
  facet normal -0.359896 0.932993 0
    outer loop
      vertex 6.67042 -18.6426 12.5
      vertex 7.57713 -18.2928 2.5
      vertex 6.67042 -18.6426 2.5
    endloop
  endfacet
  facet normal -0.997291 -0.0735634 0
    outer loop
      vertex 19.7761 0.971539 2.5
      vertex 19.7047 1.94074 12.5
      vertex 19.7047 1.94074 2.5
    endloop
  endfacet
  facet normal -0.997291 -0.0735634 0
    outer loop
      vertex 19.7047 1.94074 12.5
      vertex 19.7761 0.971539 2.5
      vertex 19.7761 0.971539 12.5
    endloop
  endfacet
  facet normal -0.949528 -0.313681 0
    outer loop
      vertex 18.9474 5.74764 2.5
      vertex 18.6426 6.67042 12.5
      vertex 18.6426 6.67042 2.5
    endloop
  endfacet
  facet normal -0.949528 -0.313681 0
    outer loop
      vertex 18.6426 6.67042 12.5
      vertex 18.9474 5.74764 2.5
      vertex 18.9474 5.74764 12.5
    endloop
  endfacet
  facet normal -0.689541 -0.724247 0
    outer loop
      vertex 13.2969 14.6708 2.5
      vertex 14.0007 14.0007 12.5
      vertex 13.2969 14.6708 12.5
    endloop
  endfacet
  facet normal -0.689541 -0.724247 -0
    outer loop
      vertex 14.0007 14.0007 12.5
      vertex 13.2969 14.6708 2.5
      vertex 14.0007 14.0007 2.5
    endloop
  endfacet
  facet normal -0.817585 -0.575808 0
    outer loop
      vertex 16.4631 11.0003 2.5
      vertex 15.9035 11.7948 12.5
      vertex 15.9035 11.7948 2.5
    endloop
  endfacet
  facet normal -0.817585 -0.575808 0
    outer loop
      vertex 15.9035 11.7948 12.5
      vertex 16.4631 11.0003 2.5
      vertex 16.4631 11.0003 12.5
    endloop
  endfacet
  facet normal -0.757208 -0.653173 0
    outer loop
      vertex 15.3056 12.561 2.5
      vertex 14.6708 13.2969 12.5
      vertex 14.6708 13.2969 2.5
    endloop
  endfacet
  facet normal -0.757208 -0.653173 0
    outer loop
      vertex 14.6708 13.2969 12.5
      vertex 15.3056 12.561 2.5
      vertex 15.3056 12.561 12.5
    endloop
  endfacet
  facet normal -0.724247 -0.689541 0
    outer loop
      vertex 14.6708 13.2969 2.5
      vertex 14.0007 14.0007 12.5
      vertex 14.0007 14.0007 2.5
    endloop
  endfacet
  facet normal -0.724247 -0.689541 0
    outer loop
      vertex 14.0007 14.0007 12.5
      vertex 14.6708 13.2969 2.5
      vertex 14.6708 13.2969 12.5
    endloop
  endfacet
  facet normal -0.266714 -0.963776 0
    outer loop
      vertex 4.81101 19.2066 2.5
      vertex 5.74764 18.9474 12.5
      vertex 4.81101 19.2066 12.5
    endloop
  endfacet
  facet normal -0.266714 -0.963776 -0
    outer loop
      vertex 5.74764 18.9474 12.5
      vertex 4.81101 19.2066 2.5
      vertex 5.74764 18.9474 2.5
    endloop
  endfacet
  facet normal -0.2191 -0.975702 0
    outer loop
      vertex 3.86279 19.4195 2.5
      vertex 4.81101 19.2066 12.5
      vertex 3.86279 19.4195 12.5
    endloop
  endfacet
  facet normal -0.2191 -0.975702 -0
    outer loop
      vertex 4.81101 19.2066 12.5
      vertex 3.86279 19.4195 2.5
      vertex 4.81101 19.2066 2.5
    endloop
  endfacet
  facet normal -0.359896 -0.932993 0
    outer loop
      vertex 6.67042 18.6426 2.5
      vertex 7.57713 18.2928 12.5
      vertex 6.67042 18.6426 12.5
    endloop
  endfacet
  facet normal -0.359896 -0.932993 -0
    outer loop
      vertex 7.57713 18.2928 12.5
      vertex 6.67042 18.6426 2.5
      vertex 7.57713 18.2928 2.5
    endloop
  endfacet
  facet normal -0.492899 -0.870086 0
    outer loop
      vertex 9.33366 17.462 2.5
      vertex 10.1792 16.983 12.5
      vertex 9.33366 17.462 12.5
    endloop
  endfacet
  facet normal -0.492899 -0.870086 -0
    outer loop
      vertex 10.1792 16.983 12.5
      vertex 9.33366 17.462 2.5
      vertex 10.1792 16.983 2.5
    endloop
  endfacet
  facet normal -0.653173 -0.757208 0
    outer loop
      vertex 12.561 15.3056 2.5
      vertex 13.2969 14.6708 12.5
      vertex 12.561 15.3056 12.5
    endloop
  endfacet
  facet normal -0.653173 -0.757208 -0
    outer loop
      vertex 13.2969 14.6708 12.5
      vertex 12.561 15.3056 2.5
      vertex 13.2969 14.6708 2.5
    endloop
  endfacet
  facet normal -0.615231 -0.788347 0
    outer loop
      vertex 11.7948 15.9035 2.5
      vertex 12.561 15.3056 12.5
      vertex 11.7948 15.9035 12.5
    endloop
  endfacet
  facet normal -0.615231 -0.788347 -0
    outer loop
      vertex 12.561 15.3056 12.5
      vertex 11.7948 15.9035 2.5
      vertex 12.561 15.3056 2.5
    endloop
  endfacet
  facet normal -0.534997 -0.844854 0
    outer loop
      vertex 10.1792 16.983 2.5
      vertex 11.0003 16.4631 12.5
      vertex 10.1792 16.983 12.5
    endloop
  endfacet
  facet normal -0.534997 -0.844854 -0
    outer loop
      vertex 11.0003 16.4631 12.5
      vertex 10.1792 16.983 2.5
      vertex 11.0003 16.4631 2.5
    endloop
  endfacet
  facet normal -0.999699 -0.0245407 0
    outer loop
      vertex 19.8 0 2.5
      vertex 19.7761 0.971539 12.5
      vertex 19.7761 0.971539 2.5
    endloop
  endfacet
  facet normal -0.999699 -0.0245407 0
    outer loop
      vertex 19.7761 0.971539 12.5
      vertex 19.8 0 2.5
      vertex 19.8 0 12.5
    endloop
  endfacet
  facet normal -0.975702 0.2191 0
    outer loop
      vertex 19.2066 -4.81101 2.5
      vertex 19.4195 -3.86279 12.5
      vertex 19.4195 -3.86279 2.5
    endloop
  endfacet
  facet normal -0.975702 0.2191 0
    outer loop
      vertex 19.4195 -3.86279 12.5
      vertex 19.2066 -4.81101 2.5
      vertex 19.2066 -4.81101 12.5
    endloop
  endfacet
  facet normal -0.870086 0.492899 0
    outer loop
      vertex 16.983 -10.1792 2.5
      vertex 17.462 -9.33366 12.5
      vertex 17.462 -9.33366 2.5
    endloop
  endfacet
  facet normal -0.870086 0.492899 0
    outer loop
      vertex 17.462 -9.33366 12.5
      vertex 16.983 -10.1792 2.5
      vertex 16.983 -10.1792 12.5
    endloop
  endfacet
  facet normal -0.963776 0.266714 0
    outer loop
      vertex 18.9474 -5.74764 2.5
      vertex 19.2066 -4.81101 12.5
      vertex 19.2066 -4.81101 2.5
    endloop
  endfacet
  facet normal -0.963776 0.266714 0
    outer loop
      vertex 19.2066 -4.81101 12.5
      vertex 18.9474 -5.74764 2.5
      vertex 18.9474 -5.74764 12.5
    endloop
  endfacet
  facet normal -0.985278 -0.170961 0
    outer loop
      vertex 19.5857 2.90526 2.5
      vertex 19.4195 3.86279 12.5
      vertex 19.4195 3.86279 2.5
    endloop
  endfacet
  facet normal -0.985278 -0.170961 0
    outer loop
      vertex 19.4195 3.86279 12.5
      vertex 19.5857 2.90526 2.5
      vertex 19.5857 2.90526 12.5
    endloop
  endfacet
  facet normal -0.963776 -0.266714 0
    outer loop
      vertex 19.2066 4.81101 2.5
      vertex 18.9474 5.74764 12.5
      vertex 18.9474 5.74764 2.5
    endloop
  endfacet
  facet normal -0.963776 -0.266714 0
    outer loop
      vertex 18.9474 5.74764 12.5
      vertex 19.2066 4.81101 2.5
      vertex 19.2066 4.81101 12.5
    endloop
  endfacet
  facet normal -0.91421 -0.405242 0
    outer loop
      vertex 18.2928 7.57713 2.5
      vertex 17.899 8.46559 12.5
      vertex 17.899 8.46559 2.5
    endloop
  endfacet
  facet normal -0.91421 -0.405242 0
    outer loop
      vertex 17.899 8.46559 12.5
      vertex 18.2928 7.57713 2.5
      vertex 18.2928 7.57713 12.5
    endloop
  endfacet
  facet normal -0.932993 -0.359896 0
    outer loop
      vertex 18.6426 6.67042 2.5
      vertex 18.2928 7.57713 12.5
      vertex 18.2928 7.57713 2.5
    endloop
  endfacet
  facet normal -0.932993 -0.359896 0
    outer loop
      vertex 18.2928 7.57713 12.5
      vertex 18.6426 6.67042 2.5
      vertex 18.6426 6.67042 12.5
    endloop
  endfacet
  facet normal -0.893224 -0.449611 0
    outer loop
      vertex 17.899 8.46559 2.5
      vertex 17.462 9.33366 12.5
      vertex 17.462 9.33366 2.5
    endloop
  endfacet
  facet normal -0.893224 -0.449611 0
    outer loop
      vertex 17.462 9.33366 12.5
      vertex 17.899 8.46559 2.5
      vertex 17.899 8.46559 12.5
    endloop
  endfacet
  facet normal -0.788347 -0.615231 0
    outer loop
      vertex 15.9035 11.7948 2.5
      vertex 15.3056 12.561 12.5
      vertex 15.3056 12.561 2.5
    endloop
  endfacet
  facet normal -0.788347 -0.615231 0
    outer loop
      vertex 15.3056 12.561 12.5
      vertex 15.9035 11.7948 2.5
      vertex 15.9035 11.7948 12.5
    endloop
  endfacet
  facet normal -0.313681 -0.949528 0
    outer loop
      vertex 5.74764 18.9474 2.5
      vertex 6.67042 18.6426 12.5
      vertex 5.74764 18.9474 12.5
    endloop
  endfacet
  facet normal -0.313681 -0.949528 -0
    outer loop
      vertex 6.67042 18.6426 12.5
      vertex 5.74764 18.9474 2.5
      vertex 6.67042 18.6426 2.5
    endloop
  endfacet
  facet normal -0.405242 -0.91421 0
    outer loop
      vertex 7.57713 18.2928 2.5
      vertex 8.46559 17.899 12.5
      vertex 7.57713 18.2928 12.5
    endloop
  endfacet
  facet normal -0.405242 -0.91421 -0
    outer loop
      vertex 8.46559 17.899 12.5
      vertex 7.57713 18.2928 2.5
      vertex 8.46559 17.899 2.5
    endloop
  endfacet
  facet normal -0.999699 0.0245407 0
    outer loop
      vertex 19.7761 -0.971539 2.5
      vertex 19.8 0 12.5
      vertex 19.8 0 2.5
    endloop
  endfacet
  facet normal -0.999699 0.0245407 0
    outer loop
      vertex 19.8 0 12.5
      vertex 19.7761 -0.971539 2.5
      vertex 19.7761 -0.971539 12.5
    endloop
  endfacet
  facet normal -0.997291 0.0735634 0
    outer loop
      vertex 19.7047 -1.94074 2.5
      vertex 19.7761 -0.971539 12.5
      vertex 19.7761 -0.971539 2.5
    endloop
  endfacet
  facet normal -0.997291 0.0735634 0
    outer loop
      vertex 19.7761 -0.971539 12.5
      vertex 19.7047 -1.94074 2.5
      vertex 19.7047 -1.94074 12.5
    endloop
  endfacet
  facet normal -0.949528 0.313681 0
    outer loop
      vertex 18.6426 -6.67042 2.5
      vertex 18.9474 -5.74764 12.5
      vertex 18.9474 -5.74764 2.5
    endloop
  endfacet
  facet normal -0.949528 0.313681 0
    outer loop
      vertex 18.9474 -5.74764 12.5
      vertex 18.6426 -6.67042 2.5
      vertex 18.6426 -6.67042 12.5
    endloop
  endfacet
  facet normal -0.449611 0.893224 0
    outer loop
      vertex 9.33366 -17.462 2.5
      vertex 8.46559 -17.899 12.5
      vertex 9.33366 -17.462 12.5
    endloop
  endfacet
  facet normal -0.449611 0.893224 0
    outer loop
      vertex 8.46559 -17.899 12.5
      vertex 9.33366 -17.462 2.5
      vertex 8.46559 -17.899 2.5
    endloop
  endfacet
  facet normal -0.757208 0.653173 0
    outer loop
      vertex 14.6708 -13.2969 2.5
      vertex 15.3056 -12.561 12.5
      vertex 15.3056 -12.561 2.5
    endloop
  endfacet
  facet normal -0.757208 0.653173 0
    outer loop
      vertex 15.3056 -12.561 12.5
      vertex 14.6708 -13.2969 2.5
      vertex 14.6708 -13.2969 12.5
    endloop
  endfacet
  facet normal -0.266714 0.963776 0
    outer loop
      vertex 5.74764 -18.9474 2.5
      vertex 4.81101 -19.2066 12.5
      vertex 5.74764 -18.9474 12.5
    endloop
  endfacet
  facet normal -0.266714 0.963776 0
    outer loop
      vertex 4.81101 -19.2066 12.5
      vertex 5.74764 -18.9474 2.5
      vertex 4.81101 -19.2066 2.5
    endloop
  endfacet
  facet normal -0.2191 0.975702 0
    outer loop
      vertex 4.81101 -19.2066 2.5
      vertex 3.86279 -19.4195 12.5
      vertex 4.81101 -19.2066 12.5
    endloop
  endfacet
  facet normal -0.2191 0.975702 0
    outer loop
      vertex 3.86279 -19.4195 12.5
      vertex 4.81101 -19.2066 2.5
      vertex 3.86279 -19.4195 2.5
    endloop
  endfacet
  facet normal -0.405242 0.91421 0
    outer loop
      vertex 8.46559 -17.899 2.5
      vertex 7.57713 -18.2928 12.5
      vertex 8.46559 -17.899 12.5
    endloop
  endfacet
  facet normal -0.405242 0.91421 0
    outer loop
      vertex 7.57713 -18.2928 12.5
      vertex 8.46559 -17.899 2.5
      vertex 7.57713 -18.2928 2.5
    endloop
  endfacet
  facet normal -0.992479 -0.122413 0
    outer loop
      vertex 19.7047 1.94074 2.5
      vertex 19.5857 2.90526 12.5
      vertex 19.5857 2.90526 2.5
    endloop
  endfacet
  facet normal -0.992479 -0.122413 0
    outer loop
      vertex 19.5857 2.90526 12.5
      vertex 19.7047 1.94074 2.5
      vertex 19.7047 1.94074 12.5
    endloop
  endfacet
  facet normal -0.985278 0.170961 0
    outer loop
      vertex 19.4195 -3.86279 2.5
      vertex 19.5857 -2.90526 12.5
      vertex 19.5857 -2.90526 2.5
    endloop
  endfacet
  facet normal -0.985278 0.170961 0
    outer loop
      vertex 19.5857 -2.90526 12.5
      vertex 19.4195 -3.86279 2.5
      vertex 19.4195 -3.86279 12.5
    endloop
  endfacet
  facet normal -0.992479 0.122413 0
    outer loop
      vertex 19.5857 -2.90526 2.5
      vertex 19.7047 -1.94074 12.5
      vertex 19.7047 -1.94074 2.5
    endloop
  endfacet
  facet normal -0.992479 0.122413 0
    outer loop
      vertex 19.7047 -1.94074 12.5
      vertex 19.5857 -2.90526 2.5
      vertex 19.5857 -2.90526 12.5
    endloop
  endfacet
  facet normal -0.575808 0.817585 0
    outer loop
      vertex 11.7948 -15.9035 2.5
      vertex 11.0003 -16.4631 12.5
      vertex 11.7948 -15.9035 12.5
    endloop
  endfacet
  facet normal -0.575808 0.817585 0
    outer loop
      vertex 11.0003 -16.4631 12.5
      vertex 11.7948 -15.9035 2.5
      vertex 11.0003 -16.4631 2.5
    endloop
  endfacet
  facet normal -0.615231 0.788347 0
    outer loop
      vertex 12.561 -15.3056 2.5
      vertex 11.7948 -15.9035 12.5
      vertex 12.561 -15.3056 12.5
    endloop
  endfacet
  facet normal -0.615231 0.788347 0
    outer loop
      vertex 11.7948 -15.9035 12.5
      vertex 12.561 -15.3056 2.5
      vertex 11.7948 -15.9035 2.5
    endloop
  endfacet
  facet normal -0.844854 0.534997 0
    outer loop
      vertex 16.4631 -11.0003 2.5
      vertex 16.983 -10.1792 12.5
      vertex 16.983 -10.1792 2.5
    endloop
  endfacet
  facet normal -0.844854 0.534997 0
    outer loop
      vertex 16.983 -10.1792 12.5
      vertex 16.4631 -11.0003 2.5
      vertex 16.4631 -11.0003 12.5
    endloop
  endfacet
  facet normal -0.313681 0.949528 0
    outer loop
      vertex 6.67042 -18.6426 2.5
      vertex 5.74764 -18.9474 12.5
      vertex 6.67042 -18.6426 12.5
    endloop
  endfacet
  facet normal -0.313681 0.949528 0
    outer loop
      vertex 5.74764 -18.9474 12.5
      vertex 6.67042 -18.6426 2.5
      vertex 5.74764 -18.9474 2.5
    endloop
  endfacet
  facet normal -0.893224 0.449611 0
    outer loop
      vertex 17.462 -9.33366 2.5
      vertex 17.899 -8.46559 12.5
      vertex 17.899 -8.46559 2.5
    endloop
  endfacet
  facet normal -0.893224 0.449611 0
    outer loop
      vertex 17.899 -8.46559 12.5
      vertex 17.462 -9.33366 2.5
      vertex 17.462 -9.33366 12.5
    endloop
  endfacet
  facet normal -0.932993 0.359896 0
    outer loop
      vertex 18.2928 -7.57713 2.5
      vertex 18.6426 -6.67042 12.5
      vertex 18.6426 -6.67042 2.5
    endloop
  endfacet
  facet normal -0.932993 0.359896 0
    outer loop
      vertex 18.6426 -6.67042 12.5
      vertex 18.2928 -7.57713 2.5
      vertex 18.2928 -7.57713 12.5
    endloop
  endfacet
  facet normal -0.91421 0.405242 0
    outer loop
      vertex 17.899 -8.46559 2.5
      vertex 18.2928 -7.57713 12.5
      vertex 18.2928 -7.57713 2.5
    endloop
  endfacet
  facet normal -0.91421 0.405242 0
    outer loop
      vertex 18.2928 -7.57713 12.5
      vertex 17.899 -8.46559 2.5
      vertex 17.899 -8.46559 12.5
    endloop
  endfacet
  facet normal -0.492899 0.870086 0
    outer loop
      vertex 10.1792 -16.983 2.5
      vertex 9.33366 -17.462 12.5
      vertex 10.1792 -16.983 12.5
    endloop
  endfacet
  facet normal -0.492899 0.870086 0
    outer loop
      vertex 9.33366 -17.462 12.5
      vertex 10.1792 -16.983 2.5
      vertex 9.33366 -17.462 2.5
    endloop
  endfacet
  facet normal -0.534997 0.844854 0
    outer loop
      vertex 11.0003 -16.4631 2.5
      vertex 10.1792 -16.983 12.5
      vertex 11.0003 -16.4631 12.5
    endloop
  endfacet
  facet normal -0.534997 0.844854 0
    outer loop
      vertex 10.1792 -16.983 12.5
      vertex 11.0003 -16.4631 2.5
      vertex 10.1792 -16.983 2.5
    endloop
  endfacet
  facet normal -0.653173 0.757208 0
    outer loop
      vertex 13.2969 -14.6708 2.5
      vertex 12.561 -15.3056 12.5
      vertex 13.2969 -14.6708 12.5
    endloop
  endfacet
  facet normal -0.653173 0.757208 0
    outer loop
      vertex 12.561 -15.3056 12.5
      vertex 13.2969 -14.6708 2.5
      vertex 12.561 -15.3056 2.5
    endloop
  endfacet
  facet normal -0.724247 0.689541 0
    outer loop
      vertex 14.0007 -14.0007 2.5
      vertex 14.6708 -13.2969 12.5
      vertex 14.6708 -13.2969 2.5
    endloop
  endfacet
  facet normal -0.724247 0.689541 0
    outer loop
      vertex 14.6708 -13.2969 12.5
      vertex 14.0007 -14.0007 2.5
      vertex 14.0007 -14.0007 12.5
    endloop
  endfacet
  facet normal -0.689541 0.724247 0
    outer loop
      vertex 14.0007 -14.0007 2.5
      vertex 13.2969 -14.6708 12.5
      vertex 14.0007 -14.0007 12.5
    endloop
  endfacet
  facet normal -0.689541 0.724247 0
    outer loop
      vertex 13.2969 -14.6708 12.5
      vertex 14.0007 -14.0007 2.5
      vertex 13.2969 -14.6708 2.5
    endloop
  endfacet
  facet normal -0.817585 0.575808 0
    outer loop
      vertex 15.9035 -11.7948 2.5
      vertex 16.4631 -11.0003 12.5
      vertex 16.4631 -11.0003 2.5
    endloop
  endfacet
  facet normal -0.817585 0.575808 0
    outer loop
      vertex 16.4631 -11.0003 12.5
      vertex 15.9035 -11.7948 2.5
      vertex 15.9035 -11.7948 12.5
    endloop
  endfacet
  facet normal -0.170961 0.985278 0
    outer loop
      vertex 3.86279 -19.4195 2.5
      vertex 3.12927 -19.5468 12.5
      vertex 3.86279 -19.4195 12.5
    endloop
  endfacet
  facet normal -0.170961 0.985278 0
    outer loop
      vertex 3.12927 -19.5468 12.5
      vertex 3.86279 -19.4195 2.5
      vertex 3.12927 -19.5468 2.5
    endloop
  endfacet
endsolid OpenSCAD_Model
